<svg width="322" height="137" viewBox="0 0 322 137" fill="none" xmlns="http://www.w3.org/2000/svg">
<g clip-path="url(#clip0_31_316)">
<path d="M200.164 100.357C199.313 104.665 197.538 108.939 193.781 111.45C190.023 113.962 179.1 121.467 179.1 121.467H122.291C118.768 121.467 115.908 118.464 115.908 114.897L109.525 73.917C109.525 70.3498 112.385 67.4289 115.908 67.4289L203.142 38.5509C206.666 38.5509 209.525 41.4374 209.525 45.0046L200.164 100.357V100.357Z" fill="#CFD3D6"/>
<path d="M260.164 61.3672C240.423 61.3672 224.419 77.5704 224.419 97.5562C224.419 117.542 240.423 133.745 260.164 133.745C279.904 133.745 295.908 117.542 295.908 97.5562C295.908 77.5704 279.904 61.3672 260.164 61.3672V61.3672ZM260.164 123.113C246.223 123.113 234.921 111.67 234.921 97.5562C234.921 83.4425 246.223 71.9999 260.164 71.9999C274.104 71.9999 285.406 83.4425 285.406 97.5562C285.406 111.67 274.104 123.113 260.164 123.113Z" fill="#68727C"/>
<path d="M71.2272 65.6754C52.4271 65.6754 37.1846 81.1074 37.1846 100.141C37.1846 119.175 52.4271 134.607 71.2272 134.607C90.0272 134.607 105.27 119.175 105.27 100.141C105.27 81.1074 90.0272 65.6754 71.2272 65.6754V65.6754ZM71.2272 125.417C57.4399 125.417 46.2612 114.1 46.2612 100.141C46.2612 86.1825 57.4399 74.8648 71.2272 74.8648C85.0144 74.8648 96.1931 86.1825 96.1931 100.141C96.1931 114.1 85.0144 125.417 71.2272 125.417V125.417Z" fill="#68727C"/>
<path d="M203.142 38.5465L115.908 67.4245C112.385 67.4245 109.525 70.3454 109.525 73.9126L111.462 86.3375C122.368 88.9699 134.547 90.4433 147.398 90.4433C169.032 90.4433 188.759 86.2729 203.704 79.4185L209.525 45.0002C209.525 41.433 206.666 38.5465 203.142 38.5465V38.5465Z" fill="#DCDFE1"/>
<path d="M198.763 27.8664C206.334 29.5552 204.631 37.1679 204.231 41.9414C202.925 57.5586 191.18 50.5793 178.529 50.8077C165.695 51.0403 150.997 55.3442 150.159 51.958C148.031 43.3415 191.193 26.1776 198.759 27.8664H198.763Z" fill="#00CCFF"/>
<path d="M198.763 27.8664C193.853 26.7721 173.946 33.6179 161.159 40.9117C167.627 42.8202 175.163 43.9145 183.21 43.9145C191.257 43.9145 198.053 42.9236 204.3 41.1874C204.776 36.401 205.942 29.4691 198.763 27.8664Z" fill="#0099CC"/>
<path d="M11.2275 100.464C13.4616 96.4791 22.9297 47.5808 74.8446 47.5808C102.93 47.5808 113.994 71.5991 113.994 71.5991L106.547 76.9844C106.547 76.9844 93.2829 58.2436 74.7382 58.2436C44.4914 58.2436 35.7935 77.0533 29.2063 92.494C25.1637 101.972 11.2275 100.464 11.2275 100.464V100.464Z" fill="#00CCFF"/>
<path d="M74.8444 47.5808C55.2997 47.5808 41.7763 54.5127 32.3848 63.3661C37.7805 63.965 43.5422 64.3613 49.5465 64.5207C55.755 60.6821 63.8529 58.2436 74.738 58.2436C79.972 58.2436 84.7848 59.7343 88.9933 61.8798C94.4699 60.9104 99.3848 59.7041 103.564 58.3212C97.2657 52.7679 87.8912 47.5808 74.8444 47.5808V47.5808Z" fill="#0099CC"/>
<path d="M217.253 112.277C217.253 112.277 210.555 76.7949 236.117 61.5826C265.798 43.9189 288.564 66.537 288.564 66.537L296.33 64.3829C296.33 64.3829 267.606 29.4864 230.585 54.2586C198.04 76.0367 209.449 112.562 209.449 112.562L217.249 112.273L217.253 112.277Z" fill="#00CCFF"/>
<path d="M230.589 54.2586C228.035 55.969 225.75 57.7698 223.712 59.6353C227.427 60.4926 231.563 61.1776 236.001 61.6558C236.044 61.63 236.082 61.6041 236.125 61.5783C253.81 51.0533 269.04 54.8316 278.461 59.6008C282.082 58.7607 285.303 57.7569 288.014 56.6281C276.891 48.0505 255.644 37.4954 230.593 54.2543L230.589 54.2586Z" fill="#0099CC"/>
<path d="M216.619 22.5631C216.619 22.5631 215.832 11.2755 230.244 9.24207C230.585 20.4391 231.351 45.4138 231.351 45.4138L216.619 22.5631V22.5631Z" fill="#00CCFF"/>
<path d="M230.244 9.24207C215.832 11.2755 216.619 22.5631 216.619 22.5631L217.279 23.5884C218.989 23.9202 220.815 24.1011 222.713 24.1011C225.572 24.1011 228.27 23.6918 230.662 22.9723C230.504 17.8326 230.351 12.8308 230.24 9.24207H230.244Z" fill="#0099CC"/>
<path d="M265.623 97.3407C265.623 100.356 263.21 102.799 260.231 102.799C257.253 102.799 254.84 100.356 254.84 97.3407C254.84 94.325 257.253 91.8822 260.231 91.8822C263.21 91.8822 265.623 94.325 265.623 97.3407Z" fill="#00CCFF"/>
<path d="M161.87 89.909C161.168 93.4762 157.738 96.4791 154.215 96.4791H141.023C137.5 96.4791 135.211 93.4762 135.913 89.909L139.666 74.5589C140.657 70.6815 144.206 66.4896 147.811 65.2704L161.002 60.9492C164.526 60.9492 166.815 63.8917 166.113 67.4589L161.87 89.909V89.909Z" fill="#00CCFF"/>
<path d="M166.1 64.9171C165.581 62.595 163.636 60.9492 161.002 60.9492L147.811 65.2704C144.202 66.4896 140.657 70.6815 139.666 74.5589L137.785 82.2576C152.355 82.1973 164.343 74.6536 166.104 64.9171H166.1Z" fill="#0099CC"/>
<path d="M211.44 44.9959C211.44 41.5967 209.432 38.6714 206.555 37.3531C206.746 32.8338 205.908 27.4787 199.176 25.9751C198.691 25.8674 198.138 25.8114 197.491 25.8114C187.955 25.8114 156.734 38.2234 149.831 47.1715C148.41 49.0155 147.895 50.7818 148.304 52.4276C148.508 53.2504 148.963 53.8234 149.529 54.2284L139.563 57.5242L136.402 48.115C141.606 46.6847 147.01 45.1725 147.41 45.0605C148.431 44.7762 149.027 43.7077 148.746 42.6738C148.466 41.6398 147.41 41.0366 146.389 41.321C146.214 41.3684 129.095 46.1548 126.18 46.8441C123.912 47.3826 123.857 47.3697 121.146 46.6847L120.248 46.4607C116.665 45.5689 107.27 42.6608 107.176 42.6307C106.163 42.3162 105.095 42.8935 104.785 43.9188C104.474 44.9442 105.044 46.0255 106.057 46.34C106.448 46.4607 115.653 49.3127 119.338 50.2304L120.223 50.4544C121.912 50.8809 122.883 51.1092 123.917 51.1092C124.768 51.1092 125.666 50.9541 127.053 50.6267C127.955 50.4113 130.112 49.8383 132.695 49.1318L135.921 58.7305L115.58 65.4599C114.793 65.7615 114.027 66.1923 113.308 66.5973C111.768 64.2665 109.453 61.2249 106.261 58.1747C100.283 52.4534 89.9761 45.6378 74.8399 45.6378C54.7335 45.6378 38.4399 52.7722 26.4101 66.8428C16.7633 78.1261 12.5633 90.7147 10.542 96.7634C10.142 97.9611 9.72923 99.2019 9.55902 99.5034C9.23987 100.072 9.2271 100.766 9.52072 101.347C9.81434 101.929 10.3803 102.321 11.0228 102.39C11.0611 102.39 11.9505 102.489 13.325 102.489C17.4441 102.489 27.4101 101.589 30.959 93.2608C36.9122 79.3022 45.0697 60.1823 74.7335 60.1823C85.6697 60.1823 94.8059 67.2607 100.087 72.5211L97.9293 75.7953C91.3421 68.3981 81.8101 63.7366 71.2229 63.7366C51.3974 63.7366 35.2654 80.0691 35.2654 100.141C35.2654 101.714 35.3761 103.26 35.5675 104.777L23.0952 104.932C22.0399 104.953 21.1973 105.893 21.2186 106.961C21.2399 108.016 21.8952 108.572 23.1718 108.538C24.4441 108.503 36.2058 108.378 36.2058 108.378C36.5633 109.938 37.0186 111.463 37.5676 112.941L23.0995 113.117C22.0441 113.135 21.2016 114.074 21.2186 115.142C21.2356 116.202 21.8186 116.723 23.1675 116.723C24.5165 116.723 39.1335 116.534 39.1335 116.534C41.0356 120.329 43.5676 123.746 46.6016 126.632H2.51646C1.45688 126.632 0.601562 127.498 0.601562 128.571C0.601562 129.644 1.45688 130.51 2.51646 130.51H51.0144C51.1378 130.51 51.2612 130.497 51.3803 130.471C57.074 134.301 63.8952 136.541 71.2272 136.541C78.5591 136.541 85.3378 134.318 91.0187 130.51H122.078C123.138 130.51 123.993 129.644 123.993 128.571C123.993 127.498 123.138 126.632 122.078 126.632H95.8485C99.1719 123.466 101.9 119.67 103.844 115.435L114.014 115.263C114.261 119.674 117.874 123.186 122.291 123.186H179.683L180.168 122.858C180.278 122.785 191.125 115.435 194.84 112.958C198.504 110.511 200.925 106.397 202.044 100.736L211.444 45.1596V44.9959H211.44ZM152.853 49.5583C158.942 41.6613 188.989 29.6888 197.491 29.6888C197.942 29.6888 198.21 29.7276 198.355 29.7577C203.108 30.8175 203.074 34.5657 202.487 40.1621C202.427 40.7264 202.372 41.2693 202.329 41.7776C201.738 48.8474 199.087 50.2304 194.704 50.2304C192.776 50.2304 190.542 49.9374 188.176 49.6315C185.236 49.2481 181.883 48.8043 178.504 48.8733C173.3 48.9681 167.883 49.7048 163.104 50.3553C159.317 50.8723 156.044 51.316 153.793 51.316C152.836 51.316 152.3 51.2299 152.023 51.1609C152.087 50.7474 152.38 50.1787 152.857 49.5583H152.853ZM51.8101 112.691C50.908 111.265 50.1505 109.74 49.5676 108.128L93.1633 107.293C92.6357 108.947 91.9336 110.52 91.074 111.989L51.8101 112.691V112.691ZM88.3889 115.702C84.1676 120.472 78.0399 123.479 71.2272 123.479C64.4144 123.479 58.7931 120.708 54.5974 116.275L88.3889 115.702V115.702ZM48.1803 100.141C48.1803 87.2724 58.5208 76.8034 71.2314 76.8034C79.2272 76.8034 86.2782 80.9479 90.4144 87.2207L84.7421 95.8328C84.6527 95.9707 84.5889 96.1172 84.5336 96.2637L64.9718 95.6863C63.9037 95.6691 63.0314 96.4963 63.0016 97.569C62.9718 98.6375 63.8016 99.5336 64.8612 99.5637L94.0825 100.425C94.0825 100.425 94.1208 100.425 94.1378 100.425C94.1846 100.425 94.2272 100.417 94.274 100.412C94.2612 101.494 94.1804 102.558 94.0272 103.601L48.5931 104.514C48.325 103.096 48.1803 101.636 48.1803 100.137V100.141ZM94.9421 87.337L98.1676 82.4429C98.9208 83.6147 99.6059 84.8296 100.21 86.1006L96.9591 92.2613C96.4442 90.5423 95.7676 88.8966 94.9421 87.3413V87.337ZM94.0059 96.5437L88.9761 96.3972L92.474 91.0852C93.1931 92.8085 93.7123 94.6395 94.0059 96.5437V96.5437ZM97.1846 107.211L102.61 107.107C102.261 108.723 101.793 110.287 101.214 111.803L95.4655 111.907C96.1761 110.412 96.7506 108.839 97.1846 107.211ZM97.8953 103.523C98.0314 102.411 98.1123 101.287 98.1123 100.137C98.1123 99.5551 98.0868 98.9821 98.0527 98.4091L102.027 90.8741C102.891 93.8123 103.359 96.9185 103.359 100.132C103.359 101.24 103.304 102.334 103.197 103.411L97.8953 103.519V103.523ZM104.465 86.2557L108.372 78.8542L112.176 103.239L107.044 103.342C107.134 102.287 107.193 101.222 107.193 100.141C107.193 95.2254 106.219 90.538 104.47 86.2557H104.465ZM41.7718 68.1827C34.9888 74.8174 31.1292 83.1064 27.4526 91.7228C24.959 97.5733 17.6356 98.5125 13.9803 98.603C14.0441 98.4134 14.108 98.2153 14.1803 98.0042C18.1846 86.0101 30.3633 49.5152 74.8527 49.5152C85.9421 49.5152 95.5889 53.3409 103.534 60.8932C107.742 64.8955 110.338 68.9409 111.517 71.0089L106.938 74.3176C103.214 69.682 91.0527 56.3006 74.7421 56.3006C60.725 56.3006 49.942 60.1867 41.7718 68.1784V68.1827ZM102.797 75.4076C103.674 76.4071 104.3 77.1998 104.657 77.6651L102.376 81.9862C101.785 80.9479 101.142 79.9398 100.453 78.9705L102.797 75.4119V75.4076ZM39.1037 100.141C39.1037 82.2059 53.5165 67.614 71.2314 67.614C81.0442 67.614 89.8399 72.0989 95.7378 79.1385L92.6867 83.7698C87.7761 77.1869 79.9846 72.926 71.2314 72.926C56.4101 72.926 44.3505 85.1355 44.3505 100.141C44.3505 101.658 44.4782 103.144 44.7165 104.596L39.4229 104.703C39.2144 103.213 39.0995 101.692 39.0995 100.145L39.1037 100.141ZM40.1293 108.305L45.5548 108.202C46.0442 109.791 46.6782 111.317 47.4314 112.768L41.6697 112.872C41.0484 111.403 40.5335 109.878 40.1293 108.305V108.305ZM71.2314 132.668C59.3888 132.668 49.0314 126.145 43.4612 116.465L49.6612 116.361C54.5633 123.031 62.4101 127.36 71.2314 127.36C80.0527 127.36 88.4655 122.707 93.325 115.62L99.5378 115.517C94.1123 125.719 83.4612 132.672 71.2314 132.672V132.668ZM106.534 107.034L112.746 106.914L113.474 111.584L105.308 111.73C105.814 110.205 106.227 108.637 106.534 107.03V107.034ZM198.283 100.003C197.359 104.665 195.538 107.844 192.729 109.727C189.461 111.911 180.683 117.852 178.521 119.317H122.295C119.968 119.317 118.053 117.507 117.848 115.207L173.819 114.255L174.325 114.354L174.759 114.095C175.202 113.828 185.649 107.581 189.351 104.971C193.542 102.011 194.636 99.3052 195.283 95.0401C197.249 81.9905 201.236 60.1522 201.274 59.9368C201.466 58.8856 200.78 57.8731 199.738 57.6793C198.695 57.4811 197.7 58.1833 197.508 59.2345C197.47 59.4543 193.474 81.3529 191.495 94.4628C190.955 98.0559 190.253 99.6241 187.159 101.808C183.993 104.044 175.291 109.3 173.244 110.528L117.342 111.528L116.614 106.853L172.125 105.789L172.576 105.888L172.976 105.673C173.24 105.535 179.444 102.226 183.18 99.5896L183.721 99.2105C187.389 96.6514 187.755 95.8458 189.317 86.9019C191.597 73.8523 193.606 60.583 193.623 60.4538C193.785 59.3939 193.066 58.4074 192.019 58.2436C190.976 58.0842 189.997 58.808 189.836 59.8678C189.814 60.0014 187.814 73.2276 185.542 86.2298C184.151 94.2043 184.1 94.2431 181.542 96.0267L180.985 96.4231C177.963 98.5556 173.014 101.283 171.585 102.058L116.036 103.174L111.738 75.6273L115.108 73.1888C115.857 72.646 116.121 71.6379 115.729 70.7935C115.704 70.7375 115.546 70.4014 115.253 69.8543C115.38 69.7724 115.517 69.6906 115.661 69.6044L116.214 69.3545L137.159 62.4226L139.653 69.85C138.819 71.1812 138.176 72.6159 137.81 74.0548L134.057 89.349L134.036 89.4394C133.585 91.7357 134.095 94.0018 135.44 95.6605C136.776 97.3105 138.759 98.2196 141.027 98.2196H154.219C158.678 98.2196 162.866 94.6955 163.755 90.1848L167.993 67.795C168.444 65.4987 167.934 63.2326 166.589 61.5739C165.253 59.9239 163.27 59.0148 161.002 59.0148H160.7L147.202 63.4221C145.568 63.9736 143.955 65.0205 142.521 66.3603L140.793 61.2206L160.836 54.5903C161.725 54.474 162.644 54.349 163.602 54.2198C168.278 53.5822 173.576 52.8627 178.559 52.7722C181.666 52.7162 184.725 53.1169 187.674 53.5003C190.168 53.8234 192.521 54.1336 194.691 54.1336C201.912 54.1336 205.44 50.4329 206.134 42.1309C206.146 41.9931 206.159 41.8466 206.172 41.7087C207.019 42.5014 207.559 43.6216 207.602 44.8709L198.274 100.029L198.283 100.003ZM141.521 74.994C142.368 71.6853 145.529 68.0621 148.402 67.0884L161.278 62.8836C162.257 62.9439 163.083 63.3403 163.627 64.0123C164.249 64.7792 164.466 65.8476 164.231 67.0324L159.993 89.4222C159.47 92.0804 156.823 94.325 154.214 94.325H141.023C139.925 94.325 138.993 93.92 138.397 93.1876C137.78 92.4293 137.563 91.3781 137.78 90.2235L141.517 74.994H141.521Z" fill="#263544"/>
<path d="M124.346 69.4106C119.146 69.4106 114.912 73.693 114.912 78.962C114.912 84.2309 119.142 88.5133 124.346 88.5133C129.55 88.5133 133.78 84.2309 133.78 78.962C133.78 73.693 129.55 69.4106 124.346 69.4106ZM124.346 84.6316C121.257 84.6316 118.742 82.0854 118.742 78.9577C118.742 75.8299 121.257 73.2837 124.346 73.2837C127.436 73.2837 129.95 75.8299 129.95 78.9577C129.95 82.0854 127.436 84.6316 124.346 84.6316Z" fill="#263544"/>
<path d="M124.078 90.1589C121.35 90.1589 119.129 92.4078 119.129 95.1694C119.129 97.931 121.35 100.18 124.078 100.18C126.806 100.18 129.027 97.931 129.027 95.1694C129.027 92.4078 126.806 90.1589 124.078 90.1589ZM124.078 96.2981C123.461 96.2981 122.959 95.7898 122.959 95.1651C122.959 94.5404 123.461 94.032 124.078 94.032C124.695 94.032 125.197 94.5404 125.197 95.1651C125.197 95.7898 124.695 96.2981 124.078 96.2981Z" fill="#263544"/>
<path d="M215.014 23.6228L229.746 46.4736C230.108 47.0337 230.717 47.3525 231.351 47.3525C231.542 47.3525 231.734 47.3223 231.925 47.262C232.742 47.0035 233.291 46.2194 233.266 45.3535L232.159 9.1817C232.142 8.63025 231.895 8.11326 231.478 7.75999C231.061 7.40671 230.517 7.24731 229.98 7.32055C213.98 9.57805 214.7 22.5673 214.708 22.7009C214.729 23.0283 214.836 23.3471 215.014 23.6228V23.6228ZM228.397 11.5555L229.223 38.568L218.525 21.9771C218.585 20.1676 219.427 13.6838 228.397 11.5555V11.5555Z" fill="#263544"/>
<path d="M184.312 58.1619C183.274 57.9895 182.282 58.6961 182.104 59.7516L176.997 90.3399C176.823 91.3954 177.525 92.3949 178.568 92.5759C178.674 92.5931 178.785 92.6017 178.891 92.6017C179.81 92.6017 180.619 91.934 180.776 90.9861L185.882 60.3978C186.057 59.3423 185.355 58.3428 184.312 58.1619Z" fill="#263544"/>
<path d="M175.815 58.1661C174.772 57.9766 173.781 58.6874 173.598 59.7386L167.428 95.2814C167.245 96.3369 167.938 97.3407 168.981 97.526C169.092 97.5475 169.206 97.5561 169.313 97.5561C170.223 97.5561 171.032 96.8927 171.198 95.9535L177.368 60.4107C177.551 59.3552 176.858 58.3514 175.815 58.1661Z" fill="#263544"/>
<path d="M319.925 126.637H284.487C292.636 119.636 297.819 109.197 297.819 97.5562C297.819 76.5321 280.925 59.4285 260.159 59.4285C252.513 59.4285 245.393 61.7506 239.444 65.7314L237.5 63.0172C244.593 58.8813 251.866 56.7789 259.134 56.7789C275.751 56.7789 287.108 67.8122 287.219 67.9243C287.704 68.4068 288.41 68.592 289.066 68.4111L296.832 66.257C297.462 66.0846 297.959 65.5978 298.151 64.9688C298.347 64.3398 298.21 63.6548 297.793 63.1464C297.13 62.3408 281.3 43.4407 257.598 43.4407C248.223 43.4407 238.9 46.4607 229.887 52.4104L193.929 2.25844C193.419 1.52174 192.449 0.591163 190.695 0.280972C183.223 -1.02873 166.083 11.2152 164.151 12.6154C163.291 13.2401 163.095 14.4507 163.708 15.321C164.325 16.1912 165.521 16.3894 166.381 15.769C173.168 10.8447 185.598 3.32257 190.036 4.10236C190.593 4.20145 190.734 4.40824 190.789 4.48579L226.747 54.6248C211.551 66.0545 206.998 80.7714 205.908 91.3825C204.666 103.497 207.504 112.764 207.623 113.152C207.874 113.962 208.615 114.505 209.449 114.505C209.47 114.505 209.495 114.505 209.517 114.505L217.317 114.216C217.874 114.194 218.398 113.927 218.742 113.488C219.091 113.044 219.232 112.471 219.125 111.915C219.108 111.829 217.521 103.144 219.002 92.7999C220.764 80.4999 225.891 71.2028 234.261 65.1153L236.355 68.032C227.9 75.0285 222.491 85.6655 222.491 97.5605C222.491 109.455 227.674 119.64 235.823 126.641H210.151C209.091 126.641 208.236 127.507 208.236 128.58C208.236 129.652 209.091 130.518 210.151 130.518H241.236C246.798 133.801 253.261 135.688 260.151 135.688C267.04 135.688 273.666 133.754 279.279 130.393C279.487 130.471 279.708 130.518 279.938 130.518H319.917C320.976 130.518 321.832 129.652 321.832 128.58C321.832 127.507 320.976 126.641 319.917 126.641L319.925 126.637ZM257.606 47.3138C274.768 47.3138 287.836 58.472 292.747 63.3662L289.079 64.3829C286.023 61.6773 274.891 52.8972 259.138 52.8972C251.07 52.8972 243.027 55.2409 235.24 59.8593L232.151 55.5511C240.483 50.0926 249.044 47.3138 257.61 47.3138H257.606ZM215.206 92.3605C214.095 100.227 214.627 107.051 215.044 110.42L210.908 110.571C210.206 107.646 208.832 100.456 209.721 91.7788C211.164 77.7125 217.644 66.2828 228.998 57.7569L232.027 61.9789C222.866 68.6868 217.078 79.1084 215.206 92.3605V92.3605ZM226.334 97.5562C226.334 86.9493 231.121 77.4583 238.619 71.1683L242.551 76.6527C236.717 81.6976 233.006 89.1939 233.006 97.5562C233.006 112.717 245.189 125.051 260.164 125.051C275.138 125.051 287.321 112.717 287.321 97.5562C287.321 82.3956 275.138 70.0611 260.164 70.0611C254.819 70.0611 249.836 71.6379 245.627 74.3478L241.704 68.8764C247.015 65.3609 253.355 63.3059 260.164 63.3059C278.819 63.3059 293.993 78.6689 293.993 97.5562C293.993 116.443 278.819 131.806 260.164 131.806C241.508 131.806 226.334 116.443 226.334 97.5562V97.5562ZM260.164 93.8425C262.185 93.8425 263.832 95.5098 263.832 97.5562C263.832 99.6026 262.185 101.27 260.164 101.27C258.142 101.27 256.495 99.6026 256.495 97.5562C256.495 95.5098 258.142 93.8425 260.164 93.8425ZM260.164 105.147C264.295 105.147 267.661 101.744 267.661 97.5562C267.661 93.3686 264.3 89.9651 260.164 89.9651C259.134 89.9651 258.151 90.1762 257.257 90.5596L254.283 86.4151C256.036 85.463 258.04 84.9202 260.164 84.9202C267.044 84.9202 272.644 90.5898 272.644 97.5562C272.644 104.523 267.044 110.192 260.164 110.192C253.283 110.192 247.683 104.523 247.683 97.5562C247.683 94.1354 249.036 91.0249 251.227 88.7502L254.232 92.9378C253.257 94.2173 252.67 95.82 252.67 97.5562C252.67 101.739 256.032 105.147 260.168 105.147H260.164ZM243.853 97.5562C243.853 106.664 251.172 114.07 260.164 114.07C269.159 114.07 276.474 106.659 276.474 97.5562C276.474 88.4529 269.155 81.0428 260.164 81.0428C257.198 81.0428 254.419 81.8527 252.019 83.2572L247.883 77.4885C251.453 75.2396 255.661 73.9385 260.164 73.9385C273.027 73.9385 283.491 84.5324 283.491 97.5562C283.491 110.58 273.027 121.174 260.164 121.174C247.3 121.174 236.836 110.58 236.836 97.5562C236.836 90.4821 239.925 84.1318 244.806 79.7977L248.951 85.5793C245.815 88.5908 243.853 92.843 243.853 97.5562Z" fill="#263544"/>
</g>
<defs>
<clipPath id="clip0_31_316">
<rect width="321.239" height="136.364" fill="white" transform="translate(0.601562 0.181885)"/>
</clipPath>
</defs>
</svg>
