<svg width="294" height="136" viewBox="0 0 294 136" fill="none" xmlns="http://www.w3.org/2000/svg">
<g clip-path="url(#clip0_31_315)">
<path d="M31.2982 44.642L55.5504 24.55L99.5119 19.2323L168.635 20.1186L195.011 44.9345L191.978 53.2079L101.331 53.5048L30.3887 57.9362L31.2982 44.642Z" fill="#767F89"/>
<path d="M55.6269 41.3894C55.063 41.3894 54.4991 41.1634 54.0944 40.7203C53.3441 39.896 53.4214 38.6375 54.2627 37.9063L75.4498 19.5558C76.2957 18.8247 77.5872 18.9 78.3376 19.7198C79.0879 20.544 79.0106 21.8026 78.1693 22.5337L56.9821 40.8842C56.591 41.221 56.109 41.3894 55.6224 41.3894H55.6269Z" fill="#A8AEB4"/>
<path d="M46.805 69.5687C46.2411 69.5687 45.6772 69.3427 45.277 68.8996C44.5267 68.0754 44.604 66.8168 45.4453 66.0857L82.2807 34.1795C83.1265 33.4483 84.4181 33.5236 85.1684 34.3435C85.9188 35.1677 85.8414 36.4262 85.0001 37.1574L48.1647 69.0636C47.7737 69.4003 47.2916 69.5687 46.805 69.5687V69.5687Z" fill="#A8AEB4"/>
<path d="M95.4639 65.5805C94.9 65.5805 94.3361 65.3545 93.9313 64.9113C93.181 64.0871 93.2583 62.8286 94.0996 62.0974L130.935 30.1912C131.781 29.46 133.072 29.5354 133.823 30.3552C134.573 31.1794 134.496 32.4379 133.654 33.1691L96.819 65.0753C96.4279 65.4121 95.9459 65.5805 95.4593 65.5805H95.4639Z" fill="#A8AEB4"/>
<path d="M131.845 70.0119C131.281 70.0119 130.717 69.7859 130.312 69.3427C129.562 68.5185 129.639 67.26 130.48 66.5288L167.316 34.6226C168.162 33.8914 169.453 33.9668 170.204 34.7866C170.954 35.6108 170.877 36.8693 170.035 37.6005L133.2 69.5067C132.809 69.8435 132.327 70.0119 131.84 70.0119H131.845Z" fill="#A8AEB4"/>
<path d="M142.759 42.5371C142.195 42.5371 141.635 42.3111 141.231 41.868C140.48 41.0437 140.553 39.7852 141.399 39.054L164.36 19.1127C165.206 18.3815 166.497 18.4524 167.247 19.2766C167.998 20.1009 167.925 21.3594 167.079 22.0906L144.118 42.0319C143.727 42.3687 143.241 42.5371 142.759 42.5371Z" fill="#A8AEB4"/>
<path d="M70.2568 109.93C70.2568 123.229 59.1925 134.006 45.5498 134.006C31.907 134.006 20.8428 123.224 20.8428 109.93C20.8428 96.6359 31.907 85.8542 45.5498 85.8542C59.1925 85.8542 70.2568 96.6359 70.2568 109.93Z" fill="#58646F"/>
<path d="M258.527 109.487C258.527 122.865 247.399 133.713 233.665 133.713C219.932 133.713 208.804 122.87 208.804 109.487C208.804 96.104 219.936 85.2604 233.665 85.2604C247.394 85.2604 258.527 96.104 258.527 109.487Z" fill="#58646F"/>
<path d="M57.5234 109.194C57.5234 115.394 52.3664 120.419 46.0044 120.419C39.6423 120.419 34.4854 115.394 34.4854 109.194C34.4854 102.995 39.6423 97.9697 46.0044 97.9697C52.3664 97.9697 57.5234 102.995 57.5234 109.194V109.194Z" fill="#C9CCD0"/>
<path d="M244.884 109.194C244.884 115.394 239.727 120.419 233.365 120.419C227.003 120.419 221.846 115.394 221.846 109.194C221.846 102.995 227.003 97.9697 233.365 97.9697C239.727 97.9697 244.884 102.995 244.884 109.194V109.194Z" fill="#C9CCD0"/>
<path d="M277.094 65.9838C277.094 62.3146 274.038 59.3367 270.273 59.3367L212.755 47.815C212.755 47.815 180.253 24.2798 177.575 22.1483C174.896 20.0168 167.875 15.2441 161.508 15.2441H79.7291C40.8473 15.2441 23.3346 41.1679 12.957 60.0634C2.95231 78.281 2.875 91.9297 2.875 106.035C2.875 109.358 5.93097 112.735 9.69637 112.735H12.293C12.3249 111.406 12.3476 110.626 12.3476 109.598C12.3476 91.6505 27.2773 77.0446 45.695 77.0446C64.1127 77.0446 79.0424 91.6771 79.0424 109.624C79.0424 110.639 79.0652 111.406 79.097 112.735H199.694C199.731 111.406 199.753 110.431 199.753 109.301C199.753 91.1897 216.375 76.4552 233.51 76.4552C250.645 76.4552 267.267 91.2207 267.267 109.332C267.267 110.449 267.29 111.41 267.321 112.74H278.454C282.219 112.74 285.275 109.651 285.275 105.982L277.09 65.9882L277.094 65.9838ZM91.7893 42.8385C91.2117 46.1798 89.7338 48.0366 84.8451 48.0366H40.8473C35.9586 48.0366 36.427 45.0808 37.5503 42.8297C41.7159 34.472 58.7329 23.7214 94.054 23.7214C93.7129 27.1558 92.3714 39.5017 91.7893 42.843V42.8385ZM179.776 48.9229H117.474C113.709 48.9229 110.653 45.8342 110.653 42.165L111.562 30.6965C111.562 27.0273 114.618 24.1025 118.384 24.1025H157.415C165.296 24.1025 167.875 26.0435 171.818 28.7023C175.76 31.3612 185.688 38.5401 185.688 42.1605C185.688 45.781 183.541 48.9184 179.776 48.9184V48.9229Z" fill="#00CCFF"/>
<path d="M139.985 76.3976C193.983 76.3976 242.401 70.6058 275.252 61.4505C274.006 60.1521 272.242 59.3367 270.273 59.3367L212.755 47.815C212.755 47.815 180.253 24.2798 177.575 22.1483C174.896 20.0168 167.875 15.2441 161.508 15.2441H79.7292C40.8474 15.2441 23.3347 41.1679 12.9571 60.0634C12.375 61.1225 11.8339 62.1639 11.3154 63.192C43.8852 71.3369 89.4929 76.3976 139.985 76.3976V76.3976ZM111.562 30.7009C111.562 27.0317 114.618 24.107 118.384 24.107H157.416C165.296 24.107 167.875 26.0479 171.818 28.7068C175.76 31.3656 185.688 38.5445 185.688 42.165C185.688 45.7854 183.541 48.9229 179.776 48.9229H117.474C113.709 48.9229 110.653 45.8342 110.653 42.165L111.562 30.6965V30.7009ZM37.5504 42.8341C41.716 34.4765 58.733 23.7259 94.0541 23.7259C93.713 27.1602 92.3715 39.5061 91.7894 42.8474C91.2119 46.1887 89.7339 48.0454 84.8452 48.0454H40.8474C35.9588 48.0454 36.4272 45.0897 37.5504 42.8385V42.8341Z" fill="#0099CC"/>
<path d="M13.5622 57.7856H28.1145C28.1145 57.7856 33.1168 71.7446 7.65039 71.7446C9.6968 65.9838 13.5622 57.7856 13.5622 57.7856Z" fill="#FBD4BF"/>
<path d="M264.361 57.3425C264.361 57.3425 259.132 81.2721 280.05 79.9427C278.231 68.8642 279.368 58.0072 264.361 57.3425Z" fill="white"/>
<path d="M9.69688 114.508H14.2808L14.3445 112.576C14.3809 111.446 14.3991 110.431 14.3991 109.482C14.3991 92.6608 28.442 78.9811 45.7001 78.9811C62.9581 78.9811 77.0011 92.6653 77.0011 109.482C77.0011 110.418 77.0193 111.428 77.0556 112.571L77.1148 114.503H201.682L201.741 112.571C201.782 111.326 201.8 110.218 201.8 109.186C201.8 92.7805 216.616 78.3873 233.511 78.3873C250.405 78.3873 265.221 92.7805 265.221 109.186C265.221 110.214 265.239 111.286 265.275 112.567L265.335 114.503H278.454C283.343 114.503 288.082 110.293 287.322 105.862C286.563 101.431 279.132 65.771 279.132 65.771C278.072 61.4017 275.157 58.3396 270.487 57.3425L213.61 45.9493C210.022 43.3348 181.327 22.4496 178.867 20.4909C176.666 18.7405 168.899 13.0284 161.504 13.0284H79.7251C77.9106 13.0284 76.1416 13.0816 74.4135 13.1924L66.4643 0.93064C65.8595 4.42562e-05 64.5953 -0.279135 63.6403 0.310243C62.6853 0.899621 62.3988 2.13155 63.0036 3.06215L69.8432 13.6133C38.0692 17.4332 21.848 39.5327 11.1476 59.0176C0.829102 77.8112 0.829102 92.0759 0.829102 105.866C0.829102 110.471 4.97195 114.508 9.69688 114.508ZM14.7583 60.8921C14.8402 60.7414 14.9221 60.5907 15.0085 60.4445H24.8767C25.0632 60.7503 25.1587 61.2288 25.1587 61.9201C25.1587 63.3869 25.1587 67.8582 15.4177 69.0813C14.299 69.2231 13.5032 70.2202 13.6487 71.3147C13.7806 72.3207 14.6628 73.0563 15.677 73.0563C15.7634 73.0563 15.8543 73.0519 15.9407 73.0386C27.5188 71.5851 29.2515 65.452 29.2515 61.9246C29.2515 61.3884 29.2106 60.9009 29.1332 60.4489H51.762C52.8943 60.4489 53.8084 59.5582 53.8084 58.4548C53.8084 57.3514 52.8943 56.4606 51.762 56.4606H17.2822C28.5966 37.2239 46.1048 17.0211 79.7296 17.0211H101.544C100.867 25.6313 97.2969 71.0843 97.015 75.693C96.5102 83.8778 98.0427 89.6918 101.694 93.4762C105.292 97.1986 110.971 99.0066 119.066 99.0066H162.723C163.855 99.0066 164.769 98.1159 164.769 97.0125C164.769 95.9091 163.855 95.0184 162.723 95.0184H119.066C112.163 95.0184 107.456 93.618 104.673 90.742C101.835 87.804 100.667 82.9605 101.099 75.9323C101.381 71.3635 105.055 24.5855 105.651 17.0211H161.513C167.712 17.0211 174.906 22.4895 176.288 23.5884C178.971 25.72 210.209 48.4531 211.537 49.4191L211.9 49.685L262.115 59.7443C262.101 60.1254 262.088 60.511 262.088 60.8921C262.088 69.8701 265.607 77.6162 270.846 80.1687C271.142 80.3105 271.451 80.3814 271.76 80.3814C272.511 80.3814 273.234 79.9781 273.593 79.278C274.098 78.2942 273.688 77.0933 272.679 76.6014C269.45 75.0283 266.18 69.1256 266.18 60.8876C266.18 60.7768 266.185 60.6661 266.19 60.5553L270.273 61.3308C272.888 61.8847 274.516 63.4756 275.048 65.9837L280.965 95.0095H274.139C273.006 95.0095 272.092 95.9002 272.092 97.0036C272.092 98.107 273.006 98.9978 274.139 98.9978H281.415C281.538 98.9978 281.66 98.9845 281.774 98.9623C281.774 98.9623 283.052 104.01 283.229 106.048C283.402 108.082 281.028 110.519 278.459 110.519H269.327C269.318 110.059 269.318 109.62 269.318 109.19C269.318 100.044 265.385 91.3004 258.24 84.5691C251.383 78.1081 242.374 74.4034 233.511 74.4034C224.647 74.4034 215.639 78.1081 208.781 84.5691C201.637 91.3004 197.703 100.044 197.703 109.19C197.703 109.615 197.703 110.059 197.694 110.519H81.103C81.0984 110.16 81.0939 109.819 81.0939 109.487C81.0939 90.4673 65.2137 74.9972 45.7001 74.9972C26.1864 74.9972 10.3017 90.4673 10.3017 109.487C10.3017 109.824 10.3017 110.165 10.2926 110.519H9.69234C7.00472 110.519 4.91738 108.02 4.91738 105.866C4.91738 103.562 4.91738 101.284 4.96285 98.9978H7.19117C8.32351 98.9978 9.23758 98.107 9.23758 97.0036C9.23758 95.9002 8.32351 95.0095 7.19117 95.0095H5.09473C5.59042 84.7508 7.49131 74.1243 14.7538 60.8921H14.7583Z" fill="#263544"/>
<path d="M198.285 81.7639C198.144 82.8585 198.939 83.8511 200.063 83.9885C200.149 83.9974 200.236 84.0062 200.317 84.0062C201.336 84.0062 202.214 83.2662 202.346 82.2603C203.892 70.2024 199.744 54.4089 199.567 53.7441C199.285 52.6762 198.166 52.038 197.07 52.3128C195.974 52.5875 195.32 53.6777 195.602 54.7456C195.643 54.9007 199.731 70.4594 198.28 81.7684L198.285 81.7639Z" fill="#263544"/>
<path d="M187.734 42.0542C187.734 37.5253 178.493 30.6167 172.982 26.8987L172.468 26.5486C168.625 23.9474 165.592 21.8912 157.42 21.8912H118.388C113.527 21.8912 109.566 25.7244 109.52 30.4527L108.615 41.9035V42.0586C108.611 46.8224 112.585 50.6998 117.478 50.6998H179.78C184.392 50.6998 187.739 47.0661 187.739 42.0586L187.734 42.0542ZM112.699 42.1251L113.604 30.6876V30.5325C113.608 27.9667 115.75 25.8795 118.383 25.8795H157.415C164.305 25.8795 166.624 27.4482 170.13 29.8235L170.653 30.178C178.675 35.5887 183.641 40.5563 183.641 42.0542C183.641 44.199 182.627 46.7071 179.776 46.7071H117.474C114.864 46.7071 112.74 44.6598 112.699 42.1251V42.1251Z" fill="#263544"/>
<path d="M45.3957 96.3389C37.874 96.3389 31.7529 102.304 31.7529 109.633C31.7529 116.963 37.874 122.927 45.3957 122.927C52.9174 122.927 59.0384 116.963 59.0384 109.633C59.0384 102.304 52.9174 96.3389 45.3957 96.3389V96.3389ZM45.3957 118.939C40.1296 118.939 35.8458 114.765 35.8458 109.633C35.8458 104.502 40.1296 100.327 45.3957 100.327C50.6618 100.327 54.9456 104.502 54.9456 109.633C54.9456 114.765 50.6618 118.939 45.3957 118.939Z" fill="#263544"/>
<path d="M233.21 96.3389C225.688 96.3389 219.567 102.304 219.567 109.633C219.567 116.963 225.688 122.927 233.21 122.927C240.732 122.927 246.853 116.963 246.853 109.633C246.853 102.304 240.732 96.3389 233.21 96.3389V96.3389ZM233.21 118.939C227.944 118.939 223.66 114.765 223.66 109.633C223.66 104.502 227.944 100.327 233.21 100.327C238.476 100.327 242.76 104.502 242.76 109.633C242.76 114.765 238.476 118.939 233.21 118.939Z" fill="#263544"/>
<path d="M132.708 56.4562H110.425C109.293 56.4562 108.379 57.3469 108.379 58.4503C108.379 59.5537 109.293 60.4444 110.425 60.4444H132.708C133.841 60.4444 134.755 59.5537 134.755 58.4503C134.755 57.3469 133.841 56.4562 132.708 56.4562Z" fill="#263544"/>
<path d="M93.8091 43.0335C94.3912 39.6834 95.7327 27.4748 96.092 23.8544C96.1465 23.296 95.9601 22.7376 95.569 22.3211C95.1825 21.9045 94.6322 21.6697 94.0547 21.6697C58.4107 21.6697 40.3477 32.5399 35.7092 41.8503C34.5541 44.168 34.4541 46.0956 35.4091 47.5801C36.3595 49.0602 38.1922 49.8136 40.848 49.8136H84.8458C90.3075 49.8136 92.986 47.7884 93.8091 43.0379V43.0335ZM38.8789 45.4619C38.8789 45.4619 38.7015 44.97 39.3882 43.5874C42.6352 37.0688 57.3148 26.1321 91.7854 25.6712C91.267 30.5635 90.2483 39.6125 89.7708 42.3688C89.3661 44.7174 88.7476 45.8209 84.8413 45.8209H40.8434C39.2518 45.8209 38.8789 45.4619 38.8743 45.4619H38.8789Z" fill="#263544"/>
<path d="M82.2306 130.018H62.5351C68.5833 125.179 72.4533 117.836 72.4533 109.633C72.4533 95.0937 60.3158 83.2662 45.3952 83.2662C30.4746 83.2662 18.3371 95.0937 18.3371 109.633C18.3371 117.836 22.2026 125.179 28.2554 130.018H2.64797C1.51563 130.018 0.601562 130.908 0.601562 132.012C0.601562 133.115 1.51563 134.006 2.64797 134.006H34.9358C34.9767 134.006 35.0131 133.997 35.054 133.993C38.2419 135.282 41.7344 136 45.3952 136C49.056 136 52.5486 135.282 55.7364 133.993C55.7774 133.993 55.8137 134.006 55.8547 134.006H82.2306C83.363 134.006 84.277 133.115 84.277 132.012C84.277 130.908 83.363 130.018 82.2306 130.018ZM22.4299 109.633C22.4299 97.2917 32.7302 87.2545 45.3952 87.2545C58.0602 87.2545 68.3605 97.2917 68.3605 109.633C68.3605 121.975 58.0602 132.012 45.3952 132.012C32.7302 132.012 22.4299 121.975 22.4299 109.633Z" fill="#263544"/>
<path d="M291.419 130.018H250.35C256.398 125.179 260.268 117.836 260.268 109.633C260.268 95.0937 248.131 83.2662 233.21 83.2662C218.289 83.2662 206.152 95.0937 206.152 109.633C206.152 117.836 210.017 125.179 216.07 130.018H196.375C195.242 130.018 194.328 130.908 194.328 132.012C194.328 133.115 195.242 134.006 196.375 134.006H222.751C222.791 134.006 222.828 133.997 222.869 133.993C226.057 135.282 229.549 136 233.21 136C236.871 136 240.363 135.282 243.551 133.993C243.592 133.993 243.628 134.006 243.669 134.006H291.419C292.551 134.006 293.465 133.115 293.465 132.012C293.465 130.908 292.551 130.018 291.419 130.018ZM210.245 109.633C210.245 97.2917 220.545 87.2545 233.21 87.2545C245.875 87.2545 256.175 97.2917 256.175 109.633C256.175 121.975 245.875 132.012 233.21 132.012C220.545 132.012 210.245 121.975 210.245 109.633Z" fill="#263544"/>
<path d="M48.306 109.602L50.3933 107.568C51.1937 106.788 51.1937 105.525 50.3933 104.75C49.593 103.97 48.2969 103.97 47.5011 104.75L45.4137 106.784L43.2718 104.692C42.4715 103.912 41.1754 103.912 40.3796 104.692C39.5792 105.472 39.5792 106.735 40.3796 107.511L42.526 109.602L40.4341 111.641C39.6338 112.42 39.6338 113.683 40.4341 114.459C40.8343 114.849 41.3573 115.044 41.8803 115.044C42.4032 115.044 42.9262 114.849 43.3264 114.459L45.4183 112.421L47.5466 114.499C47.9468 114.889 48.4697 115.084 48.9927 115.084C49.5157 115.084 50.0386 114.889 50.4388 114.499C51.2392 113.719 51.2392 112.456 50.4388 111.68L48.3106 109.602H48.306Z" fill="#263544"/>
<path d="M236.12 109.602L238.208 107.568C239.008 106.788 239.008 105.525 238.208 104.75C237.407 103.97 236.111 103.97 235.316 104.75L233.228 106.784L231.086 104.692C230.286 103.912 228.994 103.912 228.194 104.692C227.394 105.472 227.394 106.735 228.194 107.511L230.34 109.602L228.249 111.641C227.448 112.42 227.448 113.683 228.249 114.459C228.649 114.849 229.172 115.044 229.695 115.044C230.218 115.044 230.741 114.849 231.141 114.459L233.233 112.421L235.361 114.499C235.761 114.889 236.284 115.084 236.807 115.084C237.33 115.084 237.853 114.889 238.253 114.499C239.054 113.719 239.054 112.456 238.253 111.68L236.125 109.602H236.12Z" fill="#263544"/>
</g>
<defs>
<clipPath id="clip0_31_315">
<rect width="292.864" height="136" fill="white" transform="translate(0.601562)"/>
</clipPath>
</defs>
</svg>
