<svg width="41" height="41" viewBox="0 0 41 41" fill="none" xmlns="http://www.w3.org/2000/svg">
<path d="M6.83366 34.1667C5.89408 34.1667 5.09002 33.8324 4.42149 33.1639C3.75296 32.4953 3.41813 31.6907 3.41699 30.75V10.25C3.41699 9.31041 3.75183 8.50636 4.42149 7.83783C5.09116 7.1693 5.89521 6.83447 6.83366 6.83333H34.167C35.1066 6.83333 35.9112 7.16816 36.5809 7.83783C37.2505 8.50749 37.5848 9.31155 37.5837 10.25V30.75C37.5837 31.6896 37.2494 32.4942 36.5809 33.1639C35.9123 33.8335 35.1077 34.1678 34.167 34.1667H6.83366ZM20.5003 22.2083L34.167 13.6667V10.25L20.5003 18.7917L6.83366 10.25V13.6667L20.5003 22.2083Z" fill="#1E1E1E"/>
</svg>
