<svg width="41" height="41" viewBox="0 0 41 41" fill="none" xmlns="http://www.w3.org/2000/svg">
<path d="M32.8512 26.0692L28.512 25.5737C28.0018 25.5138 27.4847 25.5703 26.9994 25.739C26.5142 25.9076 26.0734 26.1841 25.7104 26.5475L22.567 29.6908C17.7177 27.2239 13.7761 23.2822 11.3091 18.4329L14.4695 15.2725C15.2041 14.5379 15.5629 13.5129 15.4433 12.4708L14.9479 8.16583C14.8514 7.33231 14.4515 6.56345 13.8246 6.0058C13.1976 5.44815 12.3874 5.14071 11.5483 5.14208H8.59286C6.66245 5.14208 5.05661 6.74791 5.1762 8.67833C6.08161 23.2675 17.7495 34.9183 32.3216 35.8237C34.252 35.9433 35.8579 34.3375 35.8579 32.4071V29.4517C35.8749 27.7262 34.5766 26.2742 32.8512 26.0692Z" fill="#1E1E1E"/>
</svg>
