<svg width="295" height="95" viewBox="0 0 295 95" fill="none" xmlns="http://www.w3.org/2000/svg">
<g clip-path="url(#clip0_31_314)">
<path d="M97.8375 5.04172L54.8369 31.3713L217.283 33.1503L160.684 4.68591L97.8375 5.04172Z" fill="#767F89"/>
<path d="M91.4097 22.8321C90.954 22.8321 90.4983 22.6506 90.1712 22.2948C89.5647 21.633 89.6272 20.6225 90.3071 20.0354L107.43 5.30153C108.114 4.71445 109.158 4.77494 109.764 5.43318C110.37 6.09498 110.308 7.10546 109.628 7.69254L92.5049 22.4264C92.1889 22.6968 91.7993 22.8321 91.406 22.8321H91.4097Z" fill="#A8AEB4"/>
<path d="M84.2759 45.4542C83.8202 45.4542 83.3645 45.2727 83.0374 44.9169C82.431 44.2551 82.4934 43.2446 83.1734 42.6575L112.943 17.0396C113.627 16.4525 114.67 16.513 115.277 17.1712C115.883 17.833 115.821 18.8435 115.141 19.4306L85.3712 45.0486C85.0551 45.319 84.6655 45.4542 84.2723 45.4542H84.2759Z" fill="#A8AEB4"/>
<path d="M128.747 42.2519C128.291 42.2519 127.835 42.0704 127.508 41.7146C126.902 41.0528 126.964 40.0423 127.644 39.4553L157.414 13.8373C158.097 13.2502 159.141 13.3107 159.747 13.9689C160.354 14.6307 160.291 15.6412 159.611 16.2283L129.842 41.8463C129.526 42.1167 129.136 42.2519 128.743 42.2519H128.747Z" fill="#A8AEB4"/>
<path d="M166.602 24.8174C166.15 24.8174 165.698 24.6395 165.371 24.2837C164.761 23.6255 164.816 22.615 165.496 22.0244L177.955 11.2008C178.635 10.6101 179.682 10.6635 180.289 11.3217C180.899 11.98 180.844 12.9905 180.164 13.5811L167.705 24.4047C167.389 24.6787 166.995 24.8139 166.602 24.8139V24.8174Z" fill="#A8AEB4"/>
<path d="M63.6576 93.2815C75.0245 93.2815 84.2391 84.3607 84.2391 73.3564C84.2391 62.352 75.0245 53.4313 63.6576 53.4313C52.2908 53.4313 43.0762 62.352 43.0762 73.3564C43.0762 84.3607 52.2908 93.2815 63.6576 93.2815Z" fill="#68727C"/>
<path d="M236.763 93.2815C248.13 93.2815 257.345 84.3607 257.345 73.3564C257.345 62.352 248.13 53.4313 236.763 53.4313C225.396 53.4313 216.182 62.352 216.182 73.3564C216.182 84.3607 225.396 93.2815 236.763 93.2815Z" fill="#68727C"/>
<path d="M63.2907 83.3189C68.9741 83.3189 73.5815 78.8585 73.5815 73.3563C73.5815 67.8542 68.9741 63.3938 63.2907 63.3938C57.6073 63.3938 53 67.8542 53 73.3563C53 78.8585 57.6073 83.3189 63.2907 83.3189Z" fill="#BDC2C7"/>
<path d="M236.395 83.3189C242.079 83.3189 246.686 78.8585 246.686 73.3563C246.686 67.8542 242.079 63.3938 236.395 63.3938C230.712 63.3938 226.104 67.8542 226.104 73.3563C226.104 78.8585 230.712 83.3189 236.395 83.3189Z" fill="#BDC2C7"/>
<path d="M292.075 73.2674L283.989 43.337C283.071 40.4016 281.417 38.6013 278.477 37.9786L213.402 25.191L179.245 9.23309C171.71 5.31924 162.155 1.84302 155.08 1.84302H96.8268C92.2327 1.84302 80.6556 5.49002 77.4398 6.73534L37.3022 22.1239L16.0629 25.1732C13.1227 25.6179 11.0094 27.4752 10.55 30.4996L3.93454 73.278C3.56702 76.3024 6.40432 78.697 9.44744 78.697H35.9277C35.9792 76.2063 36.0931 74.1853 36.0931 71.8477C36.0931 57.4056 48.1884 45.6533 63.1063 45.6533C78.0241 45.6533 90.1194 57.4269 90.1194 71.8726C90.1194 74.2102 90.2297 76.2099 90.2848 78.7005H209.404C209.455 76.2099 209.569 74.1889 209.569 71.8513C209.569 57.4091 221.664 45.6569 236.582 45.6569C251.5 45.6569 263.595 57.4305 263.595 71.8762C263.595 74.2138 263.706 76.2134 263.761 78.7041H286.566C289.609 78.7041 292.63 76.3024 292.079 73.278L292.075 73.2674ZM119.705 28.169H67.5166C64.4735 28.169 87.7305 13.581 87.7305 13.581C91.097 11.2683 98.5725 8.24395 105.004 8.24395H118.97C122.013 8.24395 124.483 10.5887 124.483 13.5383L125.218 22.7466C125.648 25.5325 122.748 28.1726 119.705 28.1726V28.169ZM200.329 29.5923H147.406C144.363 29.5923 142.4 27.1016 141.893 24.1662L139.688 13.5348C139.688 10.5887 142.157 8.2404 145.201 8.2404H149.383C155.815 8.2404 167.208 11.7984 171.526 13.5775C171.526 13.5775 203.373 29.5887 200.329 29.5887V29.5923Z" fill="#00CCFF"/>
<path d="M278.477 37.9751L213.403 25.1874L179.245 9.22955C171.711 5.31569 162.155 1.83948 155.08 1.83948H96.8271C92.233 1.83948 80.6559 5.48648 77.4401 6.7318L37.3025 22.1204L16.0632 25.1696C13.123 25.6144 11.0097 27.4717 10.5503 30.496L9.31543 38.4732C19.1651 43.5683 31.5067 48.0657 45.7593 51.7803C50.4526 47.959 56.5021 45.6533 63.1066 45.6533C73.4304 45.6533 82.398 51.2928 86.9443 59.5511C104.652 61.814 123.862 63.0522 143.933 63.0522C169.006 63.0522 192.737 61.1202 213.873 57.6724C218.684 50.4496 227.049 45.6533 236.575 45.6533C241.684 45.6533 246.458 47.0339 250.534 49.4284C261.541 46.1372 271.189 42.3443 279.16 38.1565C278.94 38.0889 278.712 38.0284 278.473 37.9786L278.477 37.9751ZM119.706 28.1691H67.5169C64.4738 28.1691 87.7308 13.5811 87.7308 13.5811C91.0974 11.2683 98.5728 8.24397 105.005 8.24397H118.971C122.014 8.24397 124.483 10.5887 124.483 13.5384L125.218 22.7466C125.648 25.5325 122.749 28.1726 119.706 28.1726V28.1691ZM200.33 29.5923H147.406C144.363 29.5923 142.4 27.1017 141.893 24.1663L139.688 13.5348C139.688 10.5887 142.158 8.24041 145.201 8.24041H149.383C155.815 8.24041 167.208 11.7985 171.527 13.5775C171.527 13.5775 203.373 29.5887 200.33 29.5887V29.5923Z" fill="#0099CC"/>
<path d="M274.129 48.0337L277.683 59.8358H287.849L285.155 48.329L274.129 48.0337Z" fill="white"/>
<path d="M9.63191 36.7084H21.0252L18.4195 51.6522H7.42676L9.63191 36.7084Z" fill="#FBD4BF"/>
<path d="M238.909 73.2389L240.596 71.6057C241.242 70.9795 241.242 69.9655 240.596 69.3428C239.949 68.7166 238.901 68.7166 238.258 69.3428L236.571 70.976L234.84 69.2966C234.193 68.6703 233.15 68.6703 232.503 69.2966C231.856 69.9228 231.856 70.9368 232.503 71.5595L234.237 73.2389L232.547 74.8756C231.9 75.5018 231.9 76.5159 232.547 77.1385C232.87 77.4516 233.293 77.6082 233.716 77.6082C234.138 77.6082 234.561 77.4516 234.884 77.1385L236.575 75.5018L238.295 77.1705C238.618 77.4836 239.041 77.6402 239.464 77.6402C239.886 77.6402 240.309 77.4836 240.632 77.1705C241.279 76.5443 241.279 75.5303 240.632 74.9076L238.912 73.2389H238.909Z" fill="#263544"/>
<path d="M236.572 61.7322C230.019 61.7322 224.689 66.8914 224.689 73.2354C224.689 79.5794 230.019 84.7385 236.572 84.7385C243.125 84.7385 248.454 79.5794 248.454 73.2354C248.454 66.8914 243.125 61.7322 236.572 61.7322ZM236.572 81.5399C231.842 81.5399 227.997 77.8146 227.997 73.2389C227.997 68.6633 231.845 64.938 236.572 64.938C241.298 64.938 245.146 68.6633 245.146 73.2389C245.146 77.8146 241.298 81.5399 236.572 81.5399Z" fill="#263544"/>
<path d="M9.44806 80.1167H37.5454L37.5859 78.5547C37.6042 77.8609 37.6263 77.1599 37.6483 76.4448C37.6961 74.929 37.7476 73.3635 37.7476 71.7552C37.7476 58.2169 49.1225 47.2047 63.1069 47.2047C77.0912 47.2047 88.4662 58.2169 88.4662 71.7552C88.4662 73.3635 88.5176 74.929 88.5654 76.4448C88.5875 77.1599 88.6132 77.8609 88.6279 78.5547L88.6683 80.1167H211.018L211.058 78.5547C211.077 77.8609 211.099 77.1599 211.121 76.4448C211.168 74.929 211.22 73.3635 211.22 71.7552C211.22 58.2169 222.595 47.2047 236.579 47.2047C250.564 47.2047 261.939 58.2169 261.939 71.7552C261.939 73.3635 261.99 74.929 262.038 76.4448C262.06 77.1599 262.086 77.8609 262.1 78.5547L262.141 80.1167H286.563C288.783 80.1167 291.014 79.1346 292.381 77.5584C293.538 76.2242 294.009 74.5697 293.704 72.9009L293.693 72.8369L285.593 42.8852L285.574 42.8247C284.446 39.2133 282.237 37.1105 278.808 36.3811L213.94 23.6433L180.002 7.70318C170.774 2.9176 161.461 0.0604829 155.08 0.0604829H131.592C131.408 0.0142282 131.217 -0.0106781 131.018 0.00711214C130.919 0.0142282 130.824 0.0355766 130.728 0.0604829H96.8274C91.6967 0.0604829 79.6125 4.07752 76.8303 5.15561L36.8729 20.5193L15.8099 23.565C12.0428 24.1343 9.46644 26.6356 8.91515 30.247L2.29968 72.9401L2.29233 72.9899C2.08284 74.7155 2.6378 76.3985 3.86167 77.7292C5.23254 79.2236 7.32376 80.1167 9.44806 80.1167ZM10.9843 38.4874H19.0625L17.0669 49.7202C16.9125 50.5919 17.5153 51.421 18.4157 51.5704C18.5113 51.5846 18.6031 51.5953 18.6987 51.5953C19.4889 51.5953 20.1872 51.0438 20.3268 50.2646L22.6533 37.1603C22.7378 36.6942 22.6018 36.2174 22.2894 35.858C21.9734 35.4987 21.5139 35.2888 21.0251 35.2888H11.4805L12.1898 30.7167C12.2302 30.4498 12.289 30.1936 12.3625 29.9517H42.7129C43.628 29.9517 44.3667 29.2365 44.3667 28.3506C44.3667 27.4646 43.628 26.7494 42.7129 26.7494H16.2142C16.2473 26.7423 16.2767 26.7352 16.3098 26.7316L37.5491 23.661L37.7366 23.6326L78.0542 8.13015C81.814 6.6749 92.7332 3.26273 96.8274 3.26273H129.647C130.441 12.1436 134.433 56.936 134.653 60.5225C134.749 62.088 134.422 63.2693 133.676 64.0343C132.941 64.7886 131.764 65.1728 130.18 65.1728H122.095C121.18 65.1728 120.441 65.888 120.441 66.774C120.441 67.6599 121.18 68.3751 122.095 68.3751H130.18C132.676 68.3751 134.716 67.635 136.083 66.2296C137.457 64.817 138.104 62.7783 137.957 60.3339C137.733 56.6904 133.83 12.8979 132.97 3.26273H155.08C160.946 3.26273 169.686 5.98464 178.462 10.5425L212.866 26.7032L261.626 36.2779L230.603 34.6341C229.688 34.5807 228.913 35.2639 228.861 36.1463C228.81 37.0286 229.512 37.783 230.423 37.8328L279.672 40.4408C279.701 40.4408 279.734 40.4408 279.764 40.4408C279.918 40.4408 280.065 40.4124 280.205 40.3768C281.204 41.0777 281.899 42.1558 282.395 43.7249L283.193 46.671H274.247C273.714 46.671 273.214 46.92 272.902 47.3399C272.593 47.7597 272.509 48.297 272.681 48.788L276.11 58.5727C276.346 59.238 276.989 59.6579 277.676 59.6579C277.852 59.6579 278.033 59.6294 278.209 59.5725C279.073 59.2878 279.536 58.3805 279.245 57.5408L276.555 49.8732H284.056L288.29 65.5286H279.756C278.841 65.5286 278.102 66.2438 278.102 67.1298C278.102 68.0157 278.841 68.7309 279.756 68.7309H289.154L290.448 73.5129C290.561 74.2316 290.356 74.9006 289.837 75.4983C289.091 76.3594 287.805 76.9144 286.555 76.9144H265.357C265.349 76.7258 265.345 76.5337 265.338 76.3416C265.29 74.8507 265.239 73.3137 265.239 71.7552C265.239 56.4521 252.379 44.0024 236.572 44.0024C220.765 44.0024 207.905 56.4521 207.905 71.7552C207.905 73.3137 207.853 74.8543 207.806 76.3416C207.798 76.5337 207.795 76.7223 207.787 76.9144H91.8915C91.8842 76.7258 91.8805 76.5337 91.8731 76.3416C91.8254 74.8507 91.7739 73.3137 91.7739 71.7552C91.7739 56.4521 78.9142 44.0024 63.1069 44.0024C47.2996 44.0024 34.4398 56.4521 34.4398 71.7552C34.4398 73.3137 34.3884 74.8543 34.3406 76.3416C34.3333 76.5337 34.3296 76.7223 34.3222 76.9144H9.44806C8.2536 76.9144 7.08854 76.4234 6.33144 75.6015C5.91981 75.1532 5.45673 74.4095 5.57434 73.3884L6.29469 68.7309H21.7565C22.6717 68.7309 23.4104 68.0157 23.4104 67.1298C23.4104 66.2438 22.6717 65.5286 21.7565 65.5286H6.79452L10.9843 38.4874V38.4874Z" fill="#263544"/>
<path d="M200.569 38.0142C200.584 38.1992 202.039 56.5481 202.282 60.5224C202.377 62.088 202.05 63.2692 201.304 64.0342C200.569 64.7885 199.393 65.1728 197.809 65.1728H189.723C188.808 65.1728 188.069 65.8879 188.069 66.7739C188.069 67.6599 188.808 68.375 189.723 68.375H197.809C200.304 68.375 202.344 67.635 203.711 66.2295C205.086 64.817 205.733 62.7782 205.586 60.3338C205.339 56.3346 203.884 37.9572 203.869 37.7722C203.799 36.8898 203.002 36.2245 202.094 36.2992C201.183 36.3668 200.503 37.1353 200.573 38.0177L200.569 38.0142Z" fill="#263544"/>
<path d="M95.2653 90.435H77.0433C82.3467 86.45 85.7721 80.227 85.7721 73.239C85.7721 61.2377 75.6871 51.4744 63.2905 51.4744C50.8938 51.4744 40.8089 61.2377 40.8089 73.239C40.8089 80.227 44.2306 86.45 49.5377 90.435H2.25543C1.34029 90.435 0.601562 91.1502 0.601562 92.0362C0.601562 92.9221 1.34029 93.6373 2.25543 93.6373H55.4622C57.9026 94.5161 60.5377 95 63.2905 95C66.0433 95 68.6784 94.5161 71.1188 93.6373H95.2653C96.1804 93.6373 96.9191 92.9221 96.9191 92.0362C96.9191 91.1502 96.1804 90.435 95.2653 90.435V90.435ZM63.2905 91.7978C52.7204 91.7978 44.1167 83.4719 44.1167 73.2354C44.1167 62.9989 52.7168 54.6731 63.2905 54.6731C73.8642 54.6731 82.4643 62.9989 82.4643 73.2354C82.4643 83.4719 73.8642 91.7978 63.2905 91.7978Z" fill="#263544"/>
<path d="M65.6284 73.2389L67.3154 71.6057C67.9622 70.9795 67.9622 69.9655 67.3154 69.3428C66.6685 68.7166 65.6211 68.7166 64.9779 69.3428L63.291 70.976L61.5599 69.2966C60.9131 68.6703 59.8656 68.6703 59.2224 69.2966C58.5756 69.9228 58.5756 70.9368 59.2224 71.5595L60.9572 73.2389L59.2665 74.8756C58.6197 75.5018 58.6197 76.5159 59.2665 77.1385C59.59 77.4516 60.0126 77.6082 60.4353 77.6082C60.8579 77.6082 61.2806 77.4516 61.604 77.1385L63.2946 75.5018L65.0146 77.1705C65.3381 77.4836 65.7607 77.6402 66.1834 77.6402C66.606 77.6402 67.0287 77.4836 67.3521 77.1705C67.999 76.5443 67.999 75.5303 67.3521 74.9076L65.6321 73.2389H65.6284Z" fill="#263544"/>
<path d="M63.2903 61.7322C56.7373 61.7322 51.4082 66.8914 51.4082 73.2354C51.4082 79.5794 56.7373 84.7385 63.2903 84.7385C69.8433 84.7385 75.1724 79.5794 75.1724 73.2354C75.1724 66.8914 69.8433 61.7322 63.2903 61.7322ZM63.2903 81.5399C58.5603 81.5399 54.7159 77.8146 54.7159 73.2389C54.7159 68.6633 58.5639 64.938 63.2903 64.938C68.0167 64.938 71.8647 68.6633 71.8647 73.2389C71.8647 77.8146 68.0167 81.5399 63.2903 81.5399Z" fill="#263544"/>
<path d="M292.826 90.435H250.321C255.625 86.45 259.05 80.227 259.05 73.239C259.05 61.2377 248.965 51.4744 236.568 51.4744C224.172 51.4744 214.087 61.2377 214.087 73.239C214.087 80.227 217.512 86.45 222.816 90.435H203.124C202.208 90.435 201.47 91.1502 201.47 92.0362C201.47 92.9221 202.208 93.6373 203.124 93.6373H228.74C231.181 94.5161 233.816 95 236.568 95C239.321 95 241.956 94.5161 244.397 93.6373H292.826C293.741 93.6373 294.48 92.9221 294.48 92.0362C294.48 91.1502 293.741 90.435 292.826 90.435V90.435ZM236.572 91.7978C226.002 91.7978 217.398 83.4719 217.398 73.2354C217.398 62.9989 225.998 54.6731 236.572 54.6731C247.146 54.6731 255.746 62.9989 255.746 73.2354C255.746 83.4719 247.146 91.7978 236.572 91.7978Z" fill="#263544"/>
<path d="M63.6578 39.1991H79.8289C80.7441 39.1991 81.4828 38.4839 81.4828 37.5979C81.4828 36.712 80.7441 35.9968 79.8289 35.9968H63.6578C62.7426 35.9968 62.0039 36.712 62.0039 37.5979C62.0039 38.4839 62.7426 39.1991 63.6578 39.1991Z" fill="#263544"/>
<path d="M162.522 35.9968H146.351C145.436 35.9968 144.697 36.712 144.697 37.5979C144.697 38.4839 145.436 39.1991 146.351 39.1991H162.522C163.437 39.1991 164.176 38.4839 164.176 37.5979C164.176 36.712 163.437 35.9968 162.522 35.9968Z" fill="#263544"/>
<path d="M67.5169 29.5923H119.706C121.834 29.5923 123.951 28.6459 125.362 27.059C126.56 25.714 127.093 24.0916 126.861 22.4798L126.134 13.3391C126.097 9.54268 122.896 6.46497 118.967 6.46497H105.001C97.7165 6.46497 89.9875 9.89849 86.7973 12.076C86.371 12.3464 81.3249 15.5167 76.389 18.8079C73.3606 20.8253 70.9606 22.4976 69.2553 23.7713C66.2048 26.052 65.2566 27.0305 65.6572 28.3292C65.8336 28.9127 66.4254 29.5923 67.5132 29.5923H67.5169ZM88.6313 14.7481L88.6901 14.709C91.7406 12.6168 98.8191 9.66721 105.008 9.66721H118.974C121.102 9.66721 122.833 11.3431 122.833 13.4032L123.572 22.7751L123.587 22.8889C123.73 23.8283 123.193 24.5932 122.863 24.9668C122.084 25.8421 120.874 26.3901 119.709 26.3901H71.1628C74.8344 23.6504 81.9754 18.9217 88.6313 14.7481Z" fill="#263544"/>
<path d="M147.407 31.0155H200.33C201.356 31.0155 201.977 30.3644 202.139 29.7169C202.495 28.3043 201.407 27.5073 196.971 24.9633C194.56 23.5828 191.183 21.7468 186.934 19.5124C179.716 15.7159 172.365 12.0191 172.292 11.98L172.178 11.9266C167.698 10.08 156.036 6.46143 149.388 6.46143H145.205C141.254 6.46143 137.902 9.57472 137.902 13.3996V13.5597L140.203 24.3655C140.912 28.4039 143.779 31.012 147.41 31.012L147.407 31.0155ZM145.201 9.66723H149.384C155.253 9.66723 166.25 12.9798 170.822 14.8513C180.083 19.5088 190.135 24.7605 195.464 27.8133H147.407C145.054 27.8133 143.86 25.7461 143.526 23.814L141.346 13.2609C141.423 11.2684 143.125 9.67079 145.201 9.67079V9.66723Z" fill="#263544"/>
</g>
<defs>
<clipPath id="clip0_31_314">
<rect width="293.878" height="95" fill="white" transform="translate(0.601562)"/>
</clipPath>
</defs>
</svg>
