<?xml version="1.0" encoding="utf-8"?><svg viewBox="0 0 502.66 502.66" xmlns="http://www.w3.org/2000/svg" xmlns:xlink="http://www.w3.org/1999/xlink"><style>:root>svg{display:none}:root>svg:target{display:block}</style><svg viewBox="0 0 322 137" id="Chopper" xmlns="http://www.w3.org/2000/svg"><g clip-path="url(#aa)"><path d="M200.164 100.357c-.851 4.308-2.626 8.582-6.383 11.093-3.758 2.512-14.681 10.017-14.681 10.017h-56.809c-3.523 0-6.383-3.003-6.383-6.57l-6.383-40.98c0-3.567 2.86-6.488 6.383-6.488l87.234-28.878c3.524 0 6.383 2.886 6.383 6.454l-9.361 55.352ZM260.164 61.367c-19.741 0-35.745 16.203-35.745 36.19 0 19.985 16.004 36.188 35.745 36.188 19.74 0 35.744-16.203 35.744-36.189s-16.004-36.189-35.744-36.189Zm0 61.746c-13.941 0-25.243-11.443-25.243-25.557 0-14.114 11.302-25.556 25.243-25.556 13.94 0 25.242 11.442 25.242 25.556s-11.302 25.557-25.242 25.557ZM71.227 65.675c-18.8 0-34.042 15.432-34.042 34.466s15.242 34.466 34.042 34.466 34.043-15.432 34.043-34.466-15.243-34.466-34.043-34.466Zm0 59.742c-13.787 0-24.966-11.317-24.966-25.276S57.44 74.865 71.227 74.865s24.966 11.318 24.966 25.276c0 13.959-11.179 25.276-24.966 25.276Z"/><path d="m203.142 38.547-87.234 28.877c-3.523 0-6.383 2.921-6.383 6.489l1.937 12.425c10.906 2.632 23.085 4.105 35.936 4.105 21.634 0 41.361-4.17 56.306-11.025L209.525 45c0-3.567-2.859-6.453-6.383-6.453Z"/><path d="M198.763 27.866c7.571 1.69 5.868 9.302 5.468 14.075-1.306 15.618-13.051 8.638-25.702 8.867-12.834.232-27.532 4.536-28.37 1.15-2.128-8.616 41.034-25.78 48.6-24.092h.004Z"/><path d="M198.763 27.866c-4.91-1.094-24.817 5.752-37.604 13.046 6.468 1.908 14.004 3.002 22.051 3.002 8.047 0 14.843-.99 21.09-2.727.476-4.786 1.642-11.718-5.537-13.32ZM11.227 100.464c2.235-3.985 11.703-52.883 63.618-52.883 28.085 0 39.149 24.018 39.149 24.018l-7.447 5.385s-13.264-18.74-31.809-18.74c-30.247 0-38.944 18.81-45.532 34.25-4.042 9.478-17.979 7.97-17.979 7.97Z"/><path d="M74.844 47.58c-19.544 0-33.068 6.933-42.46 15.786a205.69 205.69 0 0 0 17.163 1.155c6.208-3.839 14.306-6.277 25.191-6.277 5.234 0 10.047 1.49 14.255 3.636 5.477-.97 10.392-2.176 14.571-3.559-6.298-5.553-15.673-10.74-28.72-10.74ZM217.253 112.277s-6.698-35.482 18.864-50.694c29.681-17.664 52.447 4.954 52.447 4.954l7.766-2.154s-28.724-34.897-65.745-10.124c-32.545 21.778-21.136 58.303-21.136 58.303l7.8-.289.004.004Z"/><path d="M230.589 54.259a57.77 57.77 0 0 0-6.877 5.376c3.715.858 7.851 1.543 12.289 2.02.043-.025.081-.05.124-.077 17.685-10.525 32.915-6.746 42.336-1.977 3.621-.84 6.842-1.844 9.553-2.973-11.123-8.578-32.37-19.133-57.421-2.374l-.004.005ZM216.619 22.563s-.787-11.287 13.625-13.32c.341 11.196 1.107 36.17 1.107 36.17l-14.732-22.85Z"/><path d="M230.244 9.242c-14.412 2.033-13.625 13.321-13.625 13.321l.66 1.025c1.71.332 3.536.513 5.434.513 2.859 0 5.557-.41 7.949-1.129l-.422-13.73h.004ZM265.623 97.34c0 3.016-2.413 5.459-5.392 5.459-2.978 0-5.391-2.443-5.391-5.458 0-3.016 2.413-5.459 5.391-5.459 2.979 0 5.392 2.443 5.392 5.459ZM161.87 89.909c-.702 3.567-4.132 6.57-7.655 6.57h-13.192c-3.523 0-5.812-3.003-5.11-6.57l3.753-15.35c.991-3.877 4.54-8.07 8.145-9.289l13.191-4.32c3.524 0 5.813 2.942 5.111 6.509l-4.243 22.45Z"/><path d="M166.1 64.917c-.519-2.322-2.464-3.968-5.098-3.968l-13.191 4.321c-3.609 1.22-7.154 5.412-8.145 9.289l-1.881 7.699c14.57-.06 26.558-7.604 28.319-17.34h-.004Z"/><path d="M211.44 44.996a8.4 8.4 0 0 0-4.885-7.643c.191-4.52-.647-9.874-7.379-11.378a7.764 7.764 0 0 0-1.685-.164c-9.536 0-40.757 12.412-47.66 21.36-1.421 1.845-1.936 3.61-1.527 5.257a3.053 3.053 0 0 0 1.225 1.8l-9.966 3.296-3.161-9.409c5.204-1.43 10.608-2.943 11.008-3.055 1.021-.284 1.617-1.352 1.336-2.386a1.911 1.911 0 0 0-2.357-1.353c-.175.047-17.294 4.834-20.209 5.523-2.268.539-2.323.526-5.034-.16l-.898-.223c-3.583-.892-12.978-3.8-13.072-3.83a1.909 1.909 0 0 0-2.391 1.288 1.941 1.941 0 0 0 1.272 2.421c.391.12 9.596 2.973 13.281 3.89l.885.224c1.689.427 2.66.655 3.694.655.851 0 1.749-.155 3.136-.482.902-.216 3.059-.789 5.642-1.495l3.226 9.599-20.341 6.729c-.787.302-1.553.732-2.272 1.137a49.464 49.464 0 0 0-7.047-8.422c-5.978-5.722-16.285-12.537-31.421-12.537-20.107 0-36.4 7.134-48.43 21.205-9.647 11.283-13.847 23.872-15.868 29.92-.4 1.198-.813 2.439-.983 2.74a1.964 1.964 0 0 0-.038 1.844c.293.582.86.974 1.502 1.043.038 0 .928.099 2.302.099 4.12 0 14.085-.9 17.634-9.228 5.953-13.959 14.11-33.079 43.775-33.079 10.936 0 20.072 7.079 25.353 12.34l-2.158 3.273c-6.587-7.397-16.119-12.058-26.706-12.058-19.826 0-35.958 16.332-35.958 36.404 0 1.573.111 3.119.303 4.636l-12.473.155c-1.055.021-1.898.961-1.876 2.029.02 1.055.676 1.611 1.953 1.577 1.272-.035 13.034-.16 13.034-.16.357 1.56.813 3.085 1.362 4.563l-14.468.176c-1.056.018-1.898.957-1.881 2.025.017 1.06.6 1.581 1.948 1.581 1.35 0 15.966-.189 15.966-.189a36.52 36.52 0 0 0 7.469 10.098H2.516c-1.06 0-1.914.866-1.914 1.939s.855 1.939 1.914 1.939h48.498c.124 0 .247-.013.366-.039 5.694 3.83 12.515 6.07 19.847 6.07 7.332 0 14.11-2.223 19.792-6.031h31.059c1.06 0 1.915-.866 1.915-1.939a1.924 1.924 0 0 0-1.915-1.939h-26.23a36.512 36.512 0 0 0 7.996-11.197l10.17-.172c.247 4.411 3.86 7.923 8.277 7.923h57.392l.485-.328c.11-.073 10.957-7.423 14.672-9.9 3.664-2.447 6.085-6.561 7.204-12.222l9.4-55.576v-.164h-.004Zm-58.587 4.562c6.089-7.897 36.136-19.87 44.638-19.87.451 0 .719.04.864.07 4.753 1.06 4.719 4.808 4.132 10.404a76.53 76.53 0 0 0-.158 1.616c-.591 7.07-3.242 8.452-7.625 8.452-1.928 0-4.162-.293-6.528-.598-2.94-.384-6.293-.828-9.672-.759-5.204.095-10.621.832-15.4 1.482-3.787.517-7.06.961-9.311.961-.957 0-1.493-.086-1.77-.155.064-.414.357-.982.834-1.603h-.004ZM51.81 112.691a23.45 23.45 0 0 1-2.242-4.563l43.595-.835a23.333 23.333 0 0 1-2.089 4.696l-39.264.702Zm36.579 3.011c-4.221 4.77-10.35 7.777-17.162 7.777-6.813 0-12.434-2.771-16.63-7.204l33.792-.573ZM48.18 100.141c0-12.869 10.34-23.338 23.051-23.338 7.996 0 15.047 4.145 19.183 10.418l-5.672 8.612a2.18 2.18 0 0 0-.208.43l-19.562-.577a1.927 1.927 0 0 0-1.97 1.883c-.03 1.069.8 1.965 1.86 1.995l29.22.861h.056c.047 0 .09-.008.136-.013a23.875 23.875 0 0 1-.247 3.189l-45.434.913a23.519 23.519 0 0 1-.413-4.377v.004Zm46.762-12.804 3.226-4.894a32.799 32.799 0 0 1 2.042 3.658l-3.25 6.16a27.033 27.033 0 0 0-2.018-4.92v-.004Zm-.936 9.207-5.03-.147 3.498-5.312a23.45 23.45 0 0 1 1.532 5.459Zm3.179 10.667 5.425-.104a32.181 32.181 0 0 1-1.396 4.696l-5.748.104a27.346 27.346 0 0 0 1.719-4.696Zm.71-3.688c.136-1.112.217-2.236.217-3.386 0-.582-.025-1.155-.06-1.728l3.975-7.535a32.767 32.767 0 0 1 1.332 9.258c0 1.108-.055 2.202-.162 3.279l-5.302.108v.004Zm6.57-17.267 3.907-7.402 3.804 24.385-5.132.103c.09-1.055.149-2.12.149-3.201a36.64 36.64 0 0 0-2.723-13.885h-.005ZM41.772 68.183c-6.783 6.634-10.643 14.923-14.32 23.54-2.493 5.85-9.816 6.79-13.472 6.88.064-.19.128-.388.2-.599 4.005-11.994 16.183-48.489 60.673-48.489 11.09 0 20.736 3.826 28.681 11.378 4.208 4.002 6.804 8.048 7.983 10.116l-4.579 3.309C103.214 69.682 91.053 56.3 74.742 56.3c-14.017 0-24.8 3.886-32.97 11.877v.005Zm61.025 7.225a45.02 45.02 0 0 1 1.86 2.257l-2.281 4.321a35.637 35.637 0 0 0-1.923-3.016l2.344-3.558v-.004ZM39.104 100.14c0-17.935 14.413-32.527 32.127-32.527 9.813 0 18.609 4.485 24.507 11.524l-3.051 4.632c-4.91-6.583-12.702-10.844-21.456-10.844-14.82 0-26.88 12.21-26.88 27.215 0 1.517.127 3.003.366 4.455l-5.294.107a32.867 32.867 0 0 1-.324-4.558l.005-.004Zm1.025 8.164 5.426-.103a27.457 27.457 0 0 0 1.876 4.566l-5.761.104a32.45 32.45 0 0 1-1.54-4.567Zm31.102 24.363c-11.842 0-22.2-6.523-27.77-16.203l6.2-.104c4.902 6.67 12.75 10.999 21.57 10.999 8.822 0 17.235-4.653 22.094-11.74l6.213-.103c-5.426 10.202-16.077 17.155-28.307 17.155v-.004Zm35.303-25.634 6.212-.12.728 4.67-8.166.146a36.917 36.917 0 0 0 1.226-4.7v.004Zm91.749-7.031c-.924 4.662-2.745 7.841-5.554 9.724a4279.796 4279.796 0 0 0-14.208 9.59h-56.226c-2.327 0-4.242-1.81-4.447-4.11l55.971-.952.506.099.434-.259c.443-.267 10.89-6.514 14.592-9.124 4.191-2.96 5.285-5.666 5.932-9.93 1.966-13.05 5.953-34.889 5.991-35.104.192-1.051-.494-2.064-1.536-2.258-1.043-.198-2.038.504-2.23 1.555-.038.22-4.034 22.119-6.013 35.229-.54 3.593-1.242 5.161-4.336 7.345-3.166 2.236-11.868 7.492-13.915 8.72l-55.902 1-.728-4.675 55.511-1.064.451.099.4-.215c.264-.138 6.468-3.447 10.204-6.083l.541-.38c3.668-2.559 4.034-3.364 5.596-12.308 2.28-13.05 4.289-26.319 4.306-26.448a1.934 1.934 0 0 0-1.604-2.21 1.922 1.922 0 0 0-2.183 1.624c-.022.133-2.022 13.36-4.294 26.362-1.391 7.974-1.442 8.013-4 9.797l-.557.396c-3.022 2.133-7.971 4.86-9.4 5.635l-55.549 1.116-4.298-27.547 3.37-2.438a1.95 1.95 0 0 0 .621-2.395 18.251 18.251 0 0 0-.476-.94c.127-.082.264-.163.408-.25l.553-.25 20.945-6.931 2.494 7.427c-.834 1.331-1.477 2.766-1.843 4.205l-3.753 15.294-.021.09c-.451 2.297.059 4.563 1.404 6.222 1.336 1.65 3.319 2.559 5.587 2.559h13.192c4.459 0 8.647-3.525 9.536-8.035l4.238-22.39c.451-2.296-.059-4.562-1.404-6.221-1.336-1.65-3.319-2.56-5.587-2.56h-.302l-13.498 4.408c-1.634.552-3.247 1.599-4.681 2.938l-1.728-5.14 20.043-6.63c.889-.116 1.808-.241 2.766-.37 4.676-.638 9.974-1.357 14.957-1.448 3.107-.056 6.166.345 9.115.728 2.494.323 4.847.634 7.017.634 7.221 0 10.749-3.701 11.443-12.003l.038-.422a4.532 4.532 0 0 1 1.43 3.162l-9.328 55.158.009-.026Zm-56.762-25.009c.847-3.309 4.008-6.932 6.881-7.906l12.876-4.204c.979.06 1.805.456 2.349 1.128.622.767.839 1.836.604 3.02l-4.238 22.39c-.523 2.658-3.17 4.903-5.779 4.903h-13.191c-1.098 0-2.03-.405-2.626-1.137-.617-.759-.834-1.81-.617-2.965l3.737-15.229h.004Z"/><path d="M124.346 69.41c-5.2 0-9.434 4.283-9.434 9.552 0 5.269 4.23 9.551 9.434 9.551 5.204 0 9.434-4.282 9.434-9.551s-4.23-9.551-9.434-9.551Zm0 15.222c-3.089 0-5.604-2.547-5.604-5.674 0-3.128 2.515-5.674 5.604-5.674 3.09 0 5.604 2.546 5.604 5.674 0 3.127-2.514 5.674-5.604 5.674Zm-.268 5.527c-2.728 0-4.949 2.249-4.949 5.01 0 2.762 2.221 5.011 4.949 5.011 2.728 0 4.949-2.249 4.949-5.01 0-2.762-2.221-5.011-4.949-5.011Zm0 6.14a1.127 1.127 0 0 1-1.119-1.134c0-.625.502-1.133 1.119-1.133s1.119.508 1.119 1.133-.502 1.133-1.119 1.133Zm90.936-72.676 14.732 22.85c.362.56.971.88 1.605.88a1.9 1.9 0 0 0 .574-.091 1.942 1.942 0 0 0 1.341-1.909l-1.107-36.171a1.94 1.94 0 0 0-.681-1.422 1.917 1.917 0 0 0-1.498-.44c-16 2.258-15.28 15.247-15.272 15.38.021.328.128.647.306.923Zm13.383-12.068.826 27.013-10.698-16.59c.06-1.81.902-8.294 9.872-10.423Zm-44.085 46.607a1.927 1.927 0 0 0-2.208 1.59l-5.107 30.588a1.942 1.942 0 0 0 1.571 2.236 1.918 1.918 0 0 0 2.208-1.59l5.106-30.588a1.94 1.94 0 0 0-1.57-2.236Zm-8.497.004c-1.043-.19-2.034.521-2.217 1.573l-6.17 35.542c-.183 1.056.51 2.06 1.553 2.245.111.022.225.03.332.03.91 0 1.719-.663 1.885-1.602l6.17-35.543c.183-1.056-.51-2.06-1.553-2.245Z"/><path d="M319.925 126.637h-35.438a38.26 38.26 0 0 0 13.332-29.08c0-21.025-16.894-38.129-37.66-38.129-7.646 0-14.766 2.323-20.715 6.303l-1.944-2.714c7.093-4.136 14.366-6.238 21.634-6.238 16.617 0 27.974 11.033 28.085 11.145a1.904 1.904 0 0 0 1.847.487l7.766-2.154a1.91 1.91 0 0 0 1.319-1.288 1.958 1.958 0 0 0-.358-1.823c-.663-.805-16.493-19.705-40.195-19.705-9.375 0-18.698 3.02-27.711 8.97L193.929 2.257c-.51-.736-1.48-1.667-3.234-1.977-7.472-1.31-24.612 10.934-26.544 12.334a1.958 1.958 0 0 0-.443 2.706 1.904 1.904 0 0 0 2.673.448c6.787-4.924 19.217-12.446 23.655-11.667.557.1.698.306.753.384l35.958 50.139c-15.196 11.43-19.749 26.146-20.839 36.757-1.242 12.115 1.596 21.382 1.715 21.77.251.81.992 1.353 1.826 1.353h.068l7.8-.289a1.91 1.91 0 0 0 1.425-.728c.349-.444.49-1.017.383-1.573-.017-.086-1.604-8.771-.123-19.115 1.762-12.3 6.889-21.597 15.259-27.685l2.094 2.917a38.249 38.249 0 0 0-13.864 29.529c0 11.894 5.183 22.079 13.332 29.08h-25.672c-1.06 0-1.915.866-1.915 1.939 0 1.072.855 1.938 1.915 1.938h31.085a37.093 37.093 0 0 0 18.915 5.17 37.347 37.347 0 0 0 19.128-5.295c.208.078.429.125.659.125h39.979a1.925 1.925 0 0 0 1.915-1.938 1.925 1.925 0 0 0-1.915-1.939l.008-.004Zm-62.319-79.323c17.162 0 30.23 11.158 35.141 16.052l-3.668 1.017c-3.056-2.706-14.188-11.486-29.941-11.486-8.068 0-16.111 2.344-23.898 6.962l-3.089-4.308c8.332-5.458 16.893-8.237 25.459-8.237h-.004Zm-42.4 45.047c-1.111 7.866-.579 14.69-.162 18.059l-4.136.151c-.702-2.925-2.076-10.115-1.187-18.792 1.443-14.066 7.923-25.496 19.277-34.022l3.029 4.222c-9.161 6.708-14.949 17.13-16.821 30.382Zm11.128 5.195a34.37 34.37 0 0 1 12.285-26.388l3.932 5.485a27.576 27.576 0 0 0-9.545 20.903c0 15.161 12.183 27.495 27.158 27.495 14.974 0 27.157-12.334 27.157-27.495 0-15.16-12.183-27.495-27.157-27.495a26.758 26.758 0 0 0-14.537 4.287l-3.923-5.472c5.311-3.515 11.651-5.57 18.46-5.57 18.655 0 33.829 15.363 33.829 34.25s-15.174 34.25-33.829 34.25c-18.656 0-33.83-15.363-33.83-34.25Zm33.83-3.713c2.021 0 3.668 1.667 3.668 3.713 0 2.047-1.647 3.714-3.668 3.714-2.022 0-3.669-1.667-3.669-3.714 0-2.046 1.647-3.713 3.669-3.713Zm0 11.304c4.131 0 7.497-3.403 7.497-7.59 0-4.188-3.361-7.592-7.497-7.592-1.03 0-2.013.211-2.907.595l-2.974-4.145a12.29 12.29 0 0 1 5.881-1.495c6.88 0 12.48 5.67 12.48 12.636 0 6.967-5.6 12.636-12.48 12.636-6.881 0-12.481-5.669-12.481-12.636 0-3.42 1.353-6.531 3.544-8.806l3.005 4.188a7.604 7.604 0 0 0-1.562 4.618c0 4.183 3.362 7.591 7.498 7.591h-.004Zm-16.311-7.59c0 9.107 7.319 16.513 16.311 16.513 8.995 0 16.31-7.411 16.31-16.514s-7.319-16.513-16.31-16.513c-2.966 0-5.745.81-8.145 2.214l-4.136-5.769a22.963 22.963 0 0 1 12.281-3.55c12.863 0 23.327 10.594 23.327 23.618s-10.464 23.618-23.327 23.618c-12.864 0-23.328-10.594-23.328-23.618a23.691 23.691 0 0 1 7.97-17.758l4.145 5.781a16.561 16.561 0 0 0-5.098 11.977Z"/></g><defs><clipPath id="aa"><path transform="translate(.602 .182)" d="M0 0h321.239v136.364H0z"/></clipPath></defs></svg><svg viewBox="0 0 294 136" id="Compact" xmlns="http://www.w3.org/2000/svg"><g clip-path="url(#ba)"><path d="M31.298 44.642 55.55 24.55l43.962-5.318 69.123.887 26.376 24.816-3.033 8.273-90.647.297-70.942 4.431.91-13.294Z"/><path d="M55.627 41.39a2.072 2.072 0 0 1-1.533-.67 1.96 1.96 0 0 1 .169-2.814l21.187-18.35a2.086 2.086 0 0 1 2.888.164 1.96 1.96 0 0 1-.169 2.814l-21.187 18.35a2.075 2.075 0 0 1-1.36.505h.005Zm-8.822 28.179a2.055 2.055 0 0 1-1.528-.67 1.96 1.96 0 0 1 .168-2.813l36.836-31.907a2.086 2.086 0 0 1 2.887.164A1.96 1.96 0 0 1 85 37.157L48.165 69.064a2.075 2.075 0 0 1-1.36.505Zm48.659-3.989a2.072 2.072 0 0 1-1.533-.669 1.96 1.96 0 0 1 .169-2.814l36.835-31.906a2.086 2.086 0 0 1 2.888.164 1.96 1.96 0 0 1-.169 2.814L96.819 65.075a2.075 2.075 0 0 1-1.36.505h.005Zm36.381 4.432a2.073 2.073 0 0 1-1.533-.67 1.96 1.96 0 0 1 .168-2.813l36.836-31.906a2.086 2.086 0 0 1 2.888.164 1.96 1.96 0 0 1-.169 2.813L133.2 69.507a2.075 2.075 0 0 1-1.36.505h.005Zm10.914-27.475a2.06 2.06 0 0 1-1.528-.669 1.956 1.956 0 0 1 .168-2.814l22.961-19.941a2.08 2.08 0 0 1 2.887.164 1.956 1.956 0 0 1-.168 2.814l-22.961 19.94a2.082 2.082 0 0 1-1.359.506ZM70.257 109.93c0 13.299-11.065 24.076-24.707 24.076-13.643 0-24.707-10.782-24.707-24.076S31.907 85.854 45.55 85.854s24.707 10.782 24.707 24.076Zm188.27-.443c0 13.378-11.128 24.226-24.862 24.226-13.733 0-24.861-10.843-24.861-24.226s11.132-24.227 24.861-24.227c13.729 0 24.862 10.844 24.862 24.227Z"/><path d="M57.523 109.194c0 6.2-5.157 11.225-11.519 11.225s-11.519-5.025-11.519-11.225c0-6.199 5.157-11.224 11.52-11.224 6.361 0 11.518 5.025 11.518 11.224Zm187.361 0c0 6.2-5.157 11.225-11.519 11.225s-11.519-5.025-11.519-11.225c0-6.199 5.157-11.224 11.519-11.224s11.519 5.025 11.519 11.224Z"/><path d="M277.094 65.984c0-3.67-3.056-6.647-6.821-6.647l-57.518-11.522s-32.502-23.535-35.18-25.667c-2.679-2.131-9.7-6.904-16.067-6.904H79.729c-38.882 0-56.394 25.924-66.772 44.82C2.952 78.28 2.875 91.93 2.875 106.034c0 3.323 3.056 6.7 6.821 6.7h2.597c.032-1.329.055-2.109.055-3.137 0-17.948 14.93-32.553 33.347-32.553 18.418 0 33.347 14.632 33.347 32.579 0 1.015.023 1.782.055 3.111h120.597c.037-1.329.059-2.304.059-3.434 0-18.111 16.622-32.846 33.757-32.846 17.135 0 33.757 14.766 33.757 32.877 0 1.117.023 2.078.054 3.408h11.133c3.765 0 6.821-3.089 6.821-6.758l-8.185-39.994.004-.004ZM91.789 42.839c-.577 3.34-2.055 5.198-6.944 5.198H40.847c-4.888 0-4.42-2.956-3.297-5.207 4.166-8.358 21.183-19.109 56.504-19.109-.341 3.435-1.683 15.78-2.265 19.122v-.005Zm87.987 6.084h-62.302c-3.765 0-6.821-3.089-6.821-6.758l.909-11.468c0-3.67 3.056-6.595 6.822-6.595h39.031c7.881 0 10.46 1.942 14.403 4.6 3.942 2.66 13.87 9.838 13.87 13.458 0 3.621-2.147 6.758-5.912 6.758v.005Z"/><path d="M139.985 76.398c53.998 0 102.416-5.792 135.267-14.947a6.874 6.874 0 0 0-4.979-2.114l-57.518-11.522s-32.502-23.535-35.18-25.667c-2.679-2.131-9.7-6.904-16.067-6.904H79.729c-38.882 0-56.394 25.924-66.772 44.82a99.273 99.273 0 0 0-1.642 3.128c32.57 8.145 78.178 13.206 128.67 13.206ZM111.562 30.7c0-3.67 3.056-6.594 6.822-6.594h39.032c7.88 0 10.459 1.94 14.402 4.6 3.942 2.659 13.87 9.837 13.87 13.458 0 3.62-2.147 6.758-5.912 6.758h-62.302c-3.765 0-6.821-3.089-6.821-6.758l.909-11.468v.004ZM37.55 42.834c4.166-8.358 21.183-19.108 56.504-19.108-.341 3.434-1.683 15.78-2.265 19.121-.577 3.342-2.055 5.198-6.944 5.198H40.847c-4.888 0-4.42-2.955-3.297-5.206v-.005Z"/><path d="M13.562 57.786h14.553S33.117 71.745 7.65 71.745c2.047-5.761 5.912-13.96 5.912-13.96ZM264.361 57.343s-5.229 23.93 15.689 22.6c-1.819-11.079-.682-21.936-15.689-22.6Z"/><path d="M9.697 114.508h4.584l.063-1.932a95.96 95.96 0 0 0 .055-3.094c0-16.821 14.043-30.5 31.301-30.5s31.301 13.683 31.301 30.5c0 .936.018 1.946.055 3.089l.059 1.932h124.567l.059-1.932c.041-1.245.059-2.353.059-3.385 0-16.406 14.816-30.799 31.711-30.799 16.894 0 31.71 14.394 31.71 30.799 0 1.028.018 2.1.054 3.381l.06 1.936h13.119c4.889 0 9.628-4.21 8.868-8.641-.759-4.431-8.19-40.091-8.19-40.091-1.06-4.37-3.975-7.431-8.645-8.428L213.61 45.949c-3.588-2.614-32.283-23.5-34.743-25.458-2.201-1.75-9.968-7.463-17.363-7.463H79.725a83.01 83.01 0 0 0-5.311.164L66.463.931C65.86 0 64.595-.28 63.64.31a1.965 1.965 0 0 0-.636 2.751l6.84 10.551c-31.775 3.82-47.996 25.92-58.696 45.405C.829 77.81.829 92.076.829 105.866c0 4.605 4.143 8.642 8.868 8.642Zm5.061-53.616c.082-.15.164-.301.25-.448h9.869c.186.306.282.785.282 1.476 0 1.467 0 5.938-9.741 7.161-1.119.142-1.915 1.14-1.77 2.234.133 1.006 1.015 1.741 2.029 1.741.086 0 .177-.004.264-.017 11.578-1.454 13.31-7.587 13.31-11.114 0-.537-.04-1.024-.118-1.476h22.629c1.132 0 2.046-.89 2.046-1.994s-.914-1.994-2.046-1.994h-34.48C28.597 37.224 46.105 17.02 79.73 17.02h21.814c-.677 8.61-4.247 54.063-4.529 58.672-.505 8.185 1.028 13.999 4.679 17.783 3.598 3.723 9.277 5.53 17.372 5.53h43.657c1.132 0 2.046-.89 2.046-1.993 0-1.104-.914-1.995-2.046-1.995h-43.657c-6.903 0-11.61-1.4-14.393-4.276-2.838-2.938-4.006-7.782-3.574-14.81.282-4.569 3.956-51.347 4.552-58.91h55.862c6.199 0 13.393 5.468 14.775 6.566 2.683 2.132 33.921 24.865 35.249 25.831l.363.266 50.215 10.06a31.3 31.3 0 0 0-.027 1.147c0 8.978 3.519 16.724 8.758 19.277.296.142.605.212.914.212.751 0 1.474-.403 1.833-1.103.505-.984.095-2.185-.914-2.677-3.229-1.573-6.499-7.475-6.499-15.713 0-.111.005-.222.01-.333l4.083.776c2.615.554 4.243 2.145 4.775 4.653l5.917 29.026h-6.826c-1.133 0-2.047.89-2.047 1.994 0 1.103.914 1.994 2.047 1.994h7.276c.123 0 .245-.014.359-.036 0 0 1.278 5.048 1.455 7.086.173 2.034-2.201 4.471-4.77 4.471h-9.132c-.009-.46-.009-.899-.009-1.329 0-9.146-3.933-17.89-11.078-24.62-6.857-6.462-15.866-10.167-24.729-10.167-8.864 0-17.872 3.705-24.73 10.166-7.144 6.731-11.078 15.475-11.078 24.621 0 .425 0 .869-.009 1.329H81.103c-.005-.359-.01-.7-.01-1.032 0-19.02-15.88-34.49-35.393-34.49-19.514 0-35.398 15.47-35.398 34.49 0 .337 0 .678-.01 1.032h-.6c-2.687 0-4.775-2.499-4.775-4.653 0-2.304 0-4.582.046-6.868H7.19c1.133 0 2.047-.891 2.047-1.994 0-1.104-.914-1.995-2.047-1.995H5.095c.495-10.258 2.396-20.885 9.659-34.117h.004Z"/><path d="M198.285 81.764c-.141 1.095.654 2.087 1.778 2.225.086.008.173.017.254.017 1.019 0 1.897-.74 2.029-1.746 1.546-12.058-2.602-27.851-2.779-28.516-.282-1.068-1.401-1.706-2.497-1.431-1.096.274-1.75 1.365-1.468 2.433.041.155 4.129 15.713 2.678 27.022l.005-.004Zm-10.551-39.71c0-4.529-9.241-11.437-14.752-15.155l-.514-.35c-3.843-2.602-6.876-4.658-15.048-4.658h-39.032c-4.861 0-8.822 3.833-8.868 8.562l-.905 11.45v.156c-.004 4.763 3.97 8.64 8.863 8.64h62.302c4.612 0 7.959-3.633 7.959-8.64l-.005-.005Zm-75.035.071.905-11.437v-.155c.004-2.566 2.146-4.654 4.779-4.654h39.032c6.89 0 9.209 1.57 12.715 3.944l.523.355c8.022 5.41 12.988 10.378 12.988 11.876 0 2.145-1.014 4.653-3.865 4.653h-62.302c-2.61 0-4.734-2.047-4.775-4.582ZM45.396 96.339c-7.522 0-13.643 5.965-13.643 13.294 0 7.33 6.121 13.294 13.643 13.294 7.521 0 13.642-5.964 13.642-13.294 0-7.329-6.12-13.294-13.642-13.294Zm0 22.6c-5.266 0-9.55-4.174-9.55-9.306 0-5.131 4.284-9.306 9.55-9.306 5.266 0 9.55 4.175 9.55 9.306 0 5.132-4.284 9.306-9.55 9.306Zm187.814-22.6c-7.522 0-13.643 5.965-13.643 13.294 0 7.33 6.121 13.294 13.643 13.294s13.643-5.964 13.643-13.294c0-7.329-6.121-13.294-13.643-13.294Zm0 22.6c-5.266 0-9.55-4.174-9.55-9.306 0-5.131 4.284-9.306 9.55-9.306 5.266 0 9.55 4.175 9.55 9.306 0 5.132-4.284 9.306-9.55 9.306ZM132.708 56.456h-22.283c-1.132 0-2.046.89-2.046 1.994s.914 1.994 2.046 1.994h22.283c1.133 0 2.047-.89 2.047-1.994 0-1.103-.914-1.994-2.047-1.994ZM93.81 43.033c.581-3.35 1.923-15.558 2.282-19.179a1.959 1.959 0 0 0-.523-1.533 2.063 2.063 0 0 0-1.514-.651c-35.644 0-53.707 10.87-58.346 20.18-1.155 2.318-1.255 4.246-.3 5.73.95 1.48 2.783 2.234 5.439 2.234h43.998c5.462 0 8.14-2.026 8.963-6.776v-.005Zm-54.931 2.429s-.177-.492.51-1.875c3.246-6.518 17.926-17.455 52.396-17.916-.518 4.893-1.537 13.941-2.014 16.698-.405 2.348-1.023 3.452-4.93 3.452H40.843c-1.591 0-1.964-.36-1.969-.36h.005Z"/><path d="M82.23 130.018H62.536c6.048-4.839 9.918-12.182 9.918-20.385 0-14.54-12.137-26.367-27.058-26.367-14.92 0-27.058 11.828-27.058 26.367 0 8.203 3.866 15.546 9.918 20.385H2.648c-1.132 0-2.046.89-2.046 1.994 0 1.103.914 1.994 2.046 1.994h32.288c.04 0 .077-.009.118-.013A27.536 27.536 0 0 0 45.395 136c3.661 0 7.154-.718 10.341-2.007.041 0 .078.013.119.013H82.23c1.132 0 2.046-.891 2.046-1.994 0-1.104-.914-1.994-2.046-1.994Zm-59.8-20.385c0-12.341 10.3-22.379 22.965-22.379S68.36 97.292 68.36 109.633c0 12.342-10.3 22.379-22.965 22.379S22.43 121.975 22.43 109.633Zm268.989 20.385H250.35c6.048-4.839 9.918-12.182 9.918-20.385 0-14.54-12.137-26.367-27.058-26.367s-27.058 11.828-27.058 26.367c0 8.203 3.865 15.546 9.918 20.385h-19.695c-1.133 0-2.047.89-2.047 1.994 0 1.103.914 1.994 2.047 1.994h26.376c.04 0 .077-.009.118-.013A27.535 27.535 0 0 0 233.21 136c3.661 0 7.153-.718 10.341-2.007.041 0 .077.013.118.013h47.75c1.132 0 2.046-.891 2.046-1.994 0-1.104-.914-1.994-2.046-1.994Zm-81.174-20.385c0-12.341 10.3-22.379 22.965-22.379s22.965 10.038 22.965 22.379c0 12.342-10.3 22.379-22.965 22.379s-22.965-10.037-22.965-22.379Z"/><path d="m48.306 109.602 2.087-2.034c.8-.78.8-2.043 0-2.818a2.08 2.08 0 0 0-2.892 0l-2.087 2.034-2.142-2.092a2.08 2.08 0 0 0-2.892 0c-.8.78-.8 2.043 0 2.819l2.146 2.091-2.092 2.039c-.8.779-.8 2.042 0 2.818.4.39.923.585 1.446.585.523 0 1.046-.195 1.446-.585l2.092-2.038 2.129 2.078c.4.39.923.585 1.446.585.523 0 1.046-.195 1.446-.585.8-.78.8-2.043 0-2.819l-2.128-2.078h-.005Zm187.814 0 2.088-2.034c.8-.78.8-2.043 0-2.818a2.08 2.08 0 0 0-2.892 0l-2.088 2.034-2.142-2.092a2.08 2.08 0 0 0-2.892 0c-.8.78-.8 2.043 0 2.819l2.146 2.091-2.091 2.039a1.953 1.953 0 0 0 0 2.818c.4.39.923.585 1.446.585.523 0 1.046-.195 1.446-.585l2.092-2.038 2.128 2.078c.4.39.923.585 1.446.585.523 0 1.046-.195 1.446-.585a1.954 1.954 0 0 0 0-2.819l-2.128-2.078h-.005Z"/></g><defs><clipPath id="ba"><path transform="translate(.602)" d="M0 0h292.864v136H0z"/></clipPath></defs></svg><svg viewBox="0 0 295 95" id="Sedan" xmlns="http://www.w3.org/2000/svg"><g clip-path="url(#fa)"><path d="m97.838 5.042-43.001 26.33 162.446 1.778-56.599-28.464-62.846.356Z"/><path d="M91.41 22.832a1.68 1.68 0 0 1-1.239-.537 1.567 1.567 0 0 1 .136-2.26L107.43 5.302a1.694 1.694 0 0 1 2.334.131 1.567 1.567 0 0 1-.136 2.26L92.505 22.426c-.316.27-.706.406-1.099.406h.004Zm-7.134 22.622a1.68 1.68 0 0 1-1.239-.537 1.567 1.567 0 0 1 .136-2.26l29.77-25.617a1.694 1.694 0 0 1 2.334.131 1.567 1.567 0 0 1-.136 2.26l-29.77 25.618c-.316.27-.706.405-1.099.405h.004Zm44.471-3.202a1.68 1.68 0 0 1-1.239-.537 1.567 1.567 0 0 1 .136-2.26l29.77-25.618a1.693 1.693 0 0 1 2.333.132 1.566 1.566 0 0 1-.136 2.26l-29.769 25.617c-.316.27-.706.406-1.099.406h.004Zm37.855-17.435c-.452 0-.904-.177-1.231-.533a1.563 1.563 0 0 1 .125-2.26l12.459-10.823a1.69 1.69 0 0 1 2.334.12c.61.659.555 1.67-.125 2.26l-12.459 10.824a1.68 1.68 0 0 1-1.103.409v.003ZM63.658 93.281c11.367 0 20.581-8.92 20.581-19.925 0-11.004-9.215-19.925-20.581-19.925-11.367 0-20.582 8.921-20.582 19.925 0 11.005 9.215 19.925 20.582 19.925Zm173.105 0c11.367 0 20.582-8.92 20.582-19.925 0-11.004-9.215-19.925-20.582-19.925s-20.581 8.921-20.581 19.925c0 11.005 9.214 19.925 20.581 19.925Z"/><path d="M63.29 83.319c5.684 0 10.292-4.46 10.292-9.963 0-5.502-4.608-9.962-10.291-9.962-5.684 0-10.291 4.46-10.291 9.962 0 5.503 4.607 9.963 10.29 9.963Zm173.105 0c5.684 0 10.291-4.46 10.291-9.963 0-5.502-4.607-9.962-10.291-9.962-5.683 0-10.291 4.46-10.291 9.962 0 5.503 4.608 9.963 10.291 9.963Z"/><path d="m292.075 73.267-8.086-29.93c-.918-2.935-2.572-4.736-5.512-5.358L213.402 25.19 179.245 9.233c-7.535-3.914-17.09-7.39-24.165-7.39H96.827c-4.594 0-16.171 3.647-19.387 4.892L37.302 22.124l-21.24 3.05c-2.94.444-5.053 2.301-5.512 5.326L3.935 73.278c-.368 3.024 2.47 5.419 5.512 5.419h26.48c.052-2.49.166-4.512.166-6.85 0-14.441 12.095-26.194 27.013-26.194 14.918 0 27.013 11.774 27.013 26.22 0 2.337.11 4.337.166 6.828h119.119c.051-2.491.165-4.512.165-6.85 0-14.442 12.095-26.194 27.013-26.194 14.918 0 27.013 11.774 27.013 26.22 0 2.337.111 4.336.166 6.827h22.805c3.043 0 6.064-2.402 5.513-5.426l-.004-.01ZM119.705 28.17H67.517c-3.043 0 20.214-14.588 20.214-14.588 3.366-2.313 10.842-5.337 17.273-5.337h13.966c3.043 0 5.513 2.345 5.513 5.294l.735 9.209c.43 2.785-2.47 5.426-5.513 5.426v-.004Zm80.624 1.423h-52.923c-3.043 0-5.006-2.49-5.513-5.426l-2.205-10.631c0-2.946 2.469-5.295 5.513-5.295h4.182c6.432 0 17.825 3.558 22.143 5.338 0 0 31.847 16.01 28.803 16.01v.004Z"/><path d="m278.477 37.975-65.074-12.788L179.245 9.23c-7.534-3.914-17.09-7.39-24.165-7.39H96.827c-4.594 0-16.171 3.646-19.387 4.892L37.303 22.12l-21.24 3.05c-2.94.444-5.053 2.302-5.513 5.326l-1.235 7.977c9.85 5.095 22.192 9.593 36.444 13.307 4.694-3.821 10.743-6.127 17.348-6.127 10.323 0 19.291 5.64 23.837 13.898 17.708 2.263 36.918 3.501 56.989 3.501 25.073 0 48.804-1.932 69.94-5.38 4.811-7.222 13.176-12.019 22.702-12.019 5.109 0 9.883 1.38 13.959 3.775 11.007-3.29 20.655-7.084 28.626-11.271a7.635 7.635 0 0 0-.687-.178l.004-.004ZM119.706 28.17h-52.19c-3.042 0 20.215-14.588 20.215-14.588 3.366-2.313 10.842-5.337 17.274-5.337h13.966c3.043 0 5.512 2.345 5.512 5.294l.735 9.209c.43 2.785-2.469 5.426-5.512 5.426v-.004Zm80.624 1.423h-52.924c-3.043 0-5.006-2.49-5.513-5.426l-2.205-10.631c0-2.946 2.47-5.295 5.513-5.295h4.182c6.432 0 17.825 3.559 22.144 5.338 0 0 31.846 16.01 28.803 16.01v.004ZM274.129 48.034l3.554 11.802h10.166l-2.694-11.507-11.026-.295Z"/><path d="M9.632 36.708h11.393L18.42 51.652H7.426l2.205-14.944ZM238.909 73.239l1.687-1.633a1.563 1.563 0 0 0 0-2.263 1.69 1.69 0 0 0-2.338 0l-1.687 1.633-1.731-1.68a1.688 1.688 0 0 0-2.337 0 1.562 1.562 0 0 0 0 2.263l1.734 1.68-1.69 1.637a1.562 1.562 0 0 0 0 2.262c.323.314.746.47 1.169.47a1.67 1.67 0 0 0 1.168-.47l1.691-1.636 1.72 1.669c.323.313.746.47 1.169.47.422 0 .845-.157 1.168-.47a1.562 1.562 0 0 0 0-2.263l-1.72-1.67h-.003Z"/><path d="M236.572 61.732c-6.553 0-11.883 5.16-11.883 11.503 0 6.344 5.33 11.504 11.883 11.504 6.553 0 11.882-5.16 11.882-11.504 0-6.344-5.329-11.503-11.882-11.503Zm0 19.808c-4.73 0-8.575-3.725-8.575-8.301 0-4.576 3.848-8.301 8.575-8.301 4.726 0 8.574 3.725 8.574 8.3 0 4.577-3.848 8.302-8.574 8.302Z"/><path d="M9.448 80.117h28.097l.04-1.562.063-2.11c.048-1.516.1-3.081.1-4.69 0-13.538 11.375-24.55 25.359-24.55 13.984 0 25.36 11.012 25.36 24.55 0 1.609.05 3.174.098 4.69.023.715.048 1.416.063 2.11l.04 1.562h122.35l.04-1.562c.019-.694.041-1.395.063-2.11.047-1.516.099-3.081.099-4.69 0-13.538 11.375-24.55 25.359-24.55 13.985 0 25.36 11.012 25.36 24.55 0 1.609.051 3.174.099 4.69.022.715.048 1.416.062 2.11l.041 1.562h24.422c2.22 0 4.451-.982 5.818-2.559 1.157-1.334 1.628-2.988 1.323-4.657l-.011-.064-8.1-29.952-.019-.06c-1.128-3.612-3.337-5.715-6.766-6.444L213.94 23.643l-33.938-15.94C170.774 2.918 161.461.06 155.08.06h-23.488a1.712 1.712 0 0 0-.574-.053 1.61 1.61 0 0 0-.29.053h-33.9c-5.131 0-17.216 4.018-19.998 5.096L36.873 20.519 15.81 23.565c-3.767.57-6.344 3.07-6.895 6.682L2.3 72.94l-.008.05c-.21 1.726.346 3.409 1.57 4.74 1.37 1.494 3.462 2.387 5.586 2.387Zm1.536-41.63h8.079L17.067 49.72c-.154.872.448 1.701 1.349 1.85.095.015.187.025.283.025.79 0 1.488-.551 1.628-1.33l2.326-13.105a1.56 1.56 0 0 0-.364-1.302 1.682 1.682 0 0 0-1.264-.57h-9.544l.709-4.571c.04-.267.099-.523.173-.765h30.35c.915 0 1.654-.716 1.654-1.601 0-.886-.739-1.602-1.654-1.602H16.214c.033-.007.063-.014.096-.017l21.24-3.071.187-.028L78.054 8.13c3.76-1.455 14.68-4.867 18.773-4.867h32.82c.794 8.88 4.786 53.673 5.006 57.26.096 1.565-.231 2.746-.977 3.511-.735.755-1.912 1.139-3.496 1.139h-8.085c-.915 0-1.654.715-1.654 1.601s.739 1.601 1.654 1.601h8.085c2.496 0 4.536-.74 5.903-2.145 1.374-1.413 2.021-3.452 1.874-5.896-.224-3.644-4.127-47.436-4.987-57.071h22.11c5.866 0 14.606 2.722 23.382 7.28l34.404 16.16 48.76 9.575-31.023-1.644c-.915-.053-1.69.63-1.742 1.512-.051.883.651 1.637 1.562 1.687l49.249 2.608h.092c.154 0 .301-.029.441-.064.999.7 1.694 1.779 2.19 3.348l.798 2.946h-8.946c-.533 0-1.033.249-1.345.669-.309.42-.393.957-.221 1.448l3.429 9.785a1.656 1.656 0 0 0 1.566 1.085c.176 0 .357-.029.533-.086.864-.284 1.327-1.192 1.036-2.031l-2.69-7.668h7.501l4.234 15.656h-8.534c-.915 0-1.654.715-1.654 1.6 0 .887.739 1.602 1.654 1.602h9.398l1.294 4.782c.113.719-.092 1.388-.611 1.985-.746.861-2.032 1.416-3.282 1.416h-21.198c-.008-.188-.012-.38-.019-.572-.048-1.491-.099-3.028-.099-4.587 0-15.303-12.86-27.753-28.667-27.753-15.807 0-28.667 12.45-28.667 27.753 0 1.559-.052 3.1-.099 4.587-.008.192-.011.38-.019.572H91.891c-.007-.188-.01-.38-.018-.572-.048-1.491-.1-3.028-.1-4.587 0-15.303-12.859-27.753-28.666-27.753S34.44 56.452 34.44 71.755c0 1.559-.052 3.1-.1 4.587-.007.192-.01.38-.018.572H9.448c-1.194 0-2.36-.49-3.117-1.313-.411-.448-.874-1.192-.757-2.213l.72-4.657h15.463c.915 0 1.653-.715 1.653-1.601s-.738-1.601-1.654-1.601H6.795l4.19-27.042Z"/><path d="M200.569 38.014c.015.185 1.47 18.534 1.713 22.508.095 1.566-.232 2.747-.978 3.512-.735.754-1.911 1.139-3.495 1.139h-8.086c-.915 0-1.654.715-1.654 1.6 0 .887.739 1.602 1.654 1.602h8.086c2.495 0 4.535-.74 5.902-2.145 1.375-1.413 2.022-3.452 1.875-5.896-.247-4-1.702-22.377-1.717-22.562-.07-.882-.867-1.547-1.775-1.473-.911.068-1.591.836-1.521 1.719l-.004-.004ZM95.265 90.435H77.043c5.304-3.985 8.73-10.208 8.73-17.196 0-12.001-10.086-21.765-22.482-21.765-12.397 0-22.482 9.764-22.482 21.765 0 6.988 3.422 13.211 8.729 17.196H2.255c-.915 0-1.653.715-1.653 1.601s.738 1.601 1.653 1.601h53.207A23.06 23.06 0 0 0 63.29 95a23.06 23.06 0 0 0 7.829-1.363h24.146c.915 0 1.654-.715 1.654-1.6 0-.887-.739-1.602-1.654-1.602Zm-31.974 1.363c-10.57 0-19.174-8.326-19.174-18.563 0-10.236 8.6-18.562 19.174-18.562 10.573 0 19.173 8.326 19.173 18.562 0 10.237-8.6 18.563-19.173 18.563Z"/><path d="m65.628 73.239 1.687-1.633a1.562 1.562 0 0 0 0-2.263 1.69 1.69 0 0 0-2.337 0l-1.687 1.633-1.731-1.68a1.689 1.689 0 0 0-2.338 0 1.562 1.562 0 0 0 0 2.263l1.735 1.68-1.69 1.637a1.562 1.562 0 0 0 0 2.262c.323.314.746.47 1.168.47.423 0 .846-.156 1.169-.47l1.69-1.636 1.72 1.669c.324.313.747.47 1.17.47.422 0 .845-.157 1.168-.47a1.562 1.562 0 0 0 0-2.263l-1.72-1.67h-.004Z"/><path d="M63.29 61.732c-6.553 0-11.882 5.16-11.882 11.503 0 6.344 5.33 11.504 11.882 11.504 6.553 0 11.882-5.16 11.882-11.504 0-6.344-5.329-11.503-11.882-11.503Zm0 19.808c-4.73 0-8.574-3.725-8.574-8.301 0-4.576 3.848-8.301 8.574-8.301 4.727 0 8.575 3.725 8.575 8.3 0 4.577-3.848 8.302-8.575 8.302Zm229.536 8.895h-42.505c5.304-3.985 8.729-10.208 8.729-17.196 0-12.001-10.085-21.765-22.482-21.765-12.396 0-22.481 9.764-22.481 21.765 0 6.988 3.425 13.211 8.729 17.196h-19.692c-.916 0-1.654.715-1.654 1.601s.738 1.601 1.654 1.601h25.616A23.064 23.064 0 0 0 236.568 95c2.753 0 5.388-.484 7.829-1.363h48.429c.915 0 1.654-.715 1.654-1.6 0-.887-.739-1.602-1.654-1.602Zm-56.254 1.363c-10.57 0-19.174-8.326-19.174-18.563 0-10.236 8.6-18.562 19.174-18.562S255.746 63 255.746 73.235c0 10.237-8.6 18.563-19.174 18.563ZM63.658 39.2h16.17c.916 0 1.655-.716 1.655-1.602 0-.886-.739-1.601-1.654-1.601H63.658c-.915 0-1.654.715-1.654 1.6 0 .887.739 1.602 1.654 1.602Zm98.864-3.203h-16.171c-.915 0-1.654.715-1.654 1.6 0 .887.739 1.602 1.654 1.602h16.171c.915 0 1.654-.715 1.654-1.601s-.739-1.601-1.654-1.601Zm-95.005-6.405h52.189c2.128 0 4.245-.946 5.656-2.533 1.198-1.345 1.731-2.967 1.499-4.58l-.727-9.14c-.037-3.796-3.238-6.874-7.167-6.874h-13.966c-7.285 0-15.014 3.433-18.204 5.611-.426.27-5.472 3.44-10.408 6.732-3.028 2.017-5.428 3.69-7.134 4.963-3.05 2.281-3.998 3.26-3.598 4.558.177.584.768 1.263 1.856 1.263h.004ZM88.63 14.748l.06-.039c3.05-2.092 10.128-5.042 16.317-5.042h13.966c2.128 0 3.859 1.676 3.859 3.736l.739 9.372.015.114c.143.94-.394 1.704-.724 2.078-.779.875-1.989 1.423-3.154 1.423H71.163c3.671-2.74 10.812-7.468 17.468-11.642Zm58.777 16.267h52.923c1.026 0 1.647-.65 1.809-1.298.356-1.413-.732-2.21-5.168-4.754-2.411-1.38-5.788-3.216-10.037-5.45-7.218-3.797-14.569-7.494-14.642-7.533l-.114-.053c-4.48-1.847-16.142-5.466-22.79-5.466h-4.183c-3.951 0-7.303 3.114-7.303 6.939v.16l2.301 10.806c.709 4.038 3.576 6.646 7.207 6.646l-.003.003Zm-2.206-21.348h4.183c5.869 0 16.866 3.313 21.438 5.184 9.261 4.658 19.313 9.91 24.642 12.962h-48.057c-2.353 0-3.547-2.067-3.881-3.999l-2.18-10.553c.077-1.993 1.779-3.59 3.855-3.59v-.004Z"/></g><defs><clipPath id="fa"><path transform="translate(.602)" d="M0 0h293.878v95H0z"/></clipPath></defs></svg><svg viewBox="0 0 502.664 502.664" xml:space="preserve" id="icon" xmlns="http://www.w3.org/2000/svg"><path d="M153.821 358.226 0 274.337v-46.463l153.821-83.414v54.574L46.636 250.523l107.185 53.431v54.272zm26.273 29.358L282.103 115.08h32.227L212.084 387.584h-31.99zm168.749-29.358v-54.272l107.164-52.999-107.164-52.59v-53.927l153.821 83.522v46.183l-153.821 84.083z"/></svg><svg viewBox="0 0 41 41" id="mail" xmlns="http://www.w3.org/2000/svg"><path d="M6.834 34.167c-.94 0-1.744-.335-2.413-1.003a3.297 3.297 0 0 1-1.004-2.414v-20.5c0-.94.335-1.744 1.004-2.412.67-.669 1.474-1.004 2.413-1.005h27.333c.94 0 1.744.335 2.414 1.005.67.67 1.004 1.474 1.003 2.412v20.5c0 .94-.335 1.744-1.003 2.414a3.282 3.282 0 0 1-2.414 1.003H6.834ZM20.5 22.208l13.667-8.541V10.25L20.5 18.792 6.834 10.25v3.417L20.5 22.208Z"/></svg><svg viewBox="0 0 41 41" id="phone" xmlns="http://www.w3.org/2000/svg"><path d="m32.851 26.07-4.339-.496a3.4 3.4 0 0 0-2.802.973l-3.143 3.144a25.71 25.71 0 0 1-11.258-11.258l3.16-3.16a3.4 3.4 0 0 0 .974-2.802l-.495-4.305a3.417 3.417 0 0 0-3.4-3.024H8.593c-1.93 0-3.536 1.606-3.417 3.536.906 14.59 12.574 26.24 27.146 27.146 1.93.12 3.536-1.486 3.536-3.417v-2.955c.017-1.726-1.281-3.178-3.007-3.383Z"/></svg></svg>