<svg width="65" height="65" viewBox="0 0 65 65" fill="none" xmlns="http://www.w3.org/2000/svg">
<g clip-path="url(#clip0_35_797)">
<path d="M0 31.2C0 16.4922 0 9.13828 4.56914 4.56914C9.13828 0 16.4922 0 31.2 0H33.8C48.5078 0 55.8617 0 60.4309 4.56914C65 9.13828 65 16.4922 65 31.2V33.8C65 48.5078 65 55.8617 60.4309 60.4309C55.8617 65 48.5078 65 33.8 65H31.2C16.4922 65 9.13828 65 4.56914 60.4309C0 55.8617 0 48.5078 0 33.8V31.2Z" fill="#5F5F5F"/>
<path d="M34.5854 46.8272C19.7708 46.8272 11.3209 36.671 10.9688 19.771H18.3896C18.6334 32.1751 24.1041 37.4293 28.4374 38.5126V19.771H35.4251V30.4688C39.7043 30.0084 44.1995 25.1335 45.7163 19.771H52.7039C51.5393 26.3794 46.6643 31.2543 43.1977 33.2584C46.6643 34.8834 52.2167 39.1355 54.3292 46.8272H46.6373C44.9852 41.6814 40.8689 37.7001 35.4251 37.1584V46.8272H34.5854Z" fill="white"/>
</g>
<defs>
<clipPath id="clip0_35_797">
<rect width="65" height="65" fill="white"/>
</clipPath>
</defs>
</svg>
